<?xml version="1.0" encoding="UTF-8"?>
<svg id="Layer_1" data-name="Layer 1" xmlns="http://www.w3.org/2000/svg" viewBox="0 0 190 190">
  <defs>
    <style>
      .cls-1 {
        fill: #404040;
      }

      .cls-2 {
        fill: #3f3f3f;
      }

      .cls-3 {
        fill: #323232;
      }

      .cls-4 {
        fill: #2b2b2b;
      }

      .cls-5 {
        fill: #444;
      }

      .cls-6 {
        fill: #6d6d6d;
      }

      .cls-7 {
        fill: #909090;
      }

      .cls-8 {
        fill: #a7a7a7;
      }

      .cls-9 {
        fill: #151515;
      }

      .cls-10 {
        fill: #6c6c6c;
      }

      .cls-11 {
        fill: #a9a9a9;
      }

      .cls-12 {
        fill: #7c7c7c;
      }

      .cls-13 {
        fill: #2f2f2f;
      }

      .cls-14 {
        fill: #232323;
      }

      .cls-15 {
        fill: #292929;
      }

      .cls-16 {
        fill: #414141;
      }

      .cls-17 {
        fill: #393939;
      }

      .cls-18 {
        fill: #939393;
      }

      .cls-19 {
        fill: #8f8f8f;
      }

      .cls-20 {
        fill: #3c3c3c;
      }

      .cls-21 {
        fill: #474747;
      }

      .cls-22 {
        fill: gray;
      }

      .cls-23 {
        fill: #9c9c9c;
      }

      .cls-24 {
        fill: #545454;
      }

      .cls-25 {
        fill: #5f5f5f;
      }

      .cls-26 {
        fill: #363636;
      }

      .cls-27 {
        fill: #727272;
      }

      .cls-28 {
        fill: #9a9a9a;
      }

      .cls-29 {
        fill: #767676;
      }

      .cls-30 {
        fill: #1c1c1c;
      }

      .cls-31 {
        fill: #7a7a7a;
      }

      .cls-32 {
        fill: #8e8e8e;
      }

      .cls-33 {
        fill: #454545;
      }

      .cls-34 {
        fill: #979797;
      }

      .cls-35 {
        fill: #868686;
      }

      .cls-36 {
        fill: #2c2c2c;
      }

      .cls-37 {
        fill: #a5a5a5;
      }

      .cls-38 {
        fill: #8f908f;
      }

      .cls-39 {
        fill: #3b3b3b;
      }

      .cls-40 {
        fill: #1e1e1e;
      }

      .cls-41 {
        fill: #0d0d0d;
      }

      .cls-42 {
        fill: #919191;
      }

      .cls-43 {
        fill: #1d1d1d;
      }

      .cls-44 {
        fill: #3e3e3e;
      }

      .cls-45 {
        fill: #212121;
      }

      .cls-46 {
        fill: #5c5c5c;
      }

      .cls-47 {
        fill: #525252;
      }

      .cls-48 {
        fill: #9d9d9d;
      }

      .cls-49 {
        fill: #3a3a3a;
      }

      .cls-50 {
        fill: #757575;
      }

      .cls-51 {
        fill: #a0a0a0;
      }

      .cls-52 {
        fill: #373737;
      }

      .cls-53 {
        fill: #3d3d3d;
      }

      .cls-54 {
        fill: #272727;
      }

      .cls-55 {
        fill: #5d5d5d;
      }

      .cls-56 {
        fill: #303030;
      }

      .cls-57 {
        fill: #656565;
      }

      .cls-58 {
        fill: #4f4f4f;
      }

      .cls-59 {
        fill: #929292;
      }

      .cls-60 {
        fill: #636363;
      }

      .cls-61 {
        fill: #4e4e4e;
      }

      .cls-62 {
        fill: #505050;
      }

      .cls-63 {
        fill: #464646;
      }

      .cls-64 {
        fill: #b7b7b7;
      }

      .cls-65 {
        fill: #9b9b9b;
      }

      .cls-66 {
        fill: #848484;
      }

      .cls-67 {
        fill: #6f6f6f;
      }

      .cls-68 {
        fill: #7d7d7d;
      }

      .cls-69 {
        fill: #515151;
      }

      .cls-70 {
        fill: #262626;
      }

      .cls-71 {
        fill: #343434;
      }

      .cls-72 {
        fill: #242424;
      }

      .cls-73 {
        fill: #818181;
      }

      .cls-74 {
        fill: #101010;
      }

      .cls-75 {
        fill: #7e7e7e;
      }

      .cls-76 {
        fill: #2e2e2e;
      }

      .cls-77 {
        fill: #959595;
      }

      .cls-78 {
        fill: #a3a3a3;
      }

      .cls-79 {
        fill: #282828;
      }

      .cls-80 {
        fill: #858585;
      }

      .cls-81 {
        fill: #8b8b8b;
      }

      .cls-82 {
        fill: #4a4a4a;
      }

      .cls-83 {
        fill: #0c0c0c;
      }

      .cls-84 {
        fill: #acacac;
      }

      .cls-85 {
        fill: #a2a2a2;
      }

      .cls-86 {
        fill: #1f1f1f;
      }

      .cls-87 {
        fill: #8a8a8a;
      }

      .cls-88 {
        fill: #b3b3b3;
      }

      .cls-89 {
        fill: #2a2a2a;
      }

      .cls-90 {
        fill: #424242;
      }

      .cls-91 {
        fill: #949494;
      }

      .cls-92 {
        fill: #838383;
      }

      .cls-93 {
        fill: #7f7f7f;
      }

      .cls-94 {
        fill: #8d8d8d;
      }

      .cls-95 {
        fill: #8c8c8c;
      }

      .cls-96 {
        fill: #202020;
      }

      .cls-97 {
        fill: #252525;
      }

      .cls-98 {
        fill: #494949;
      }

      .cls-99 {
        fill: #2d2d2d;
      }

      .cls-100 {
        fill: #9e9e9e;
      }

      .cls-101 {
        fill: #6e6e6e;
      }

      .cls-102 {
        fill: #6a6a6a;
      }

      .cls-103 {
        fill: #a8a8a8;
      }

      .cls-104 {
        fill: #191919;
      }

      .cls-105 {
        fill: #616161;
      }

      .cls-106 {
        fill: #989898;
      }

      .cls-107 {
        fill: #313131;
      }

      .cls-108 {
        fill: #353535;
      }

      .cls-109 {
        fill: #333;
      }

      .cls-110 {
        fill: #4b4b4b;
      }

      .cls-111 {
        fill: #535353;
      }

      .cls-112 {
        fill: #1a1a1a;
      }

      .cls-113 {
        fill: #555;
      }

      .cls-114 {
        fill: #888;
      }

      .cls-115 {
        fill: #181818;
      }

      .cls-116 {
        fill: #4c4c4c;
      }

      .cls-117 {
        fill: #898989;
      }

      .cls-118 {
        fill: #1b1b1b;
      }

      .cls-119 {
        fill: #222;
      }

      .cls-120 {
        fill: #999;
      }

      .cls-121 {
        fill: #b2b2b2;
      }
    </style>
  </defs>
  <path class="cls-27" d="M145.75,104.5c.21-.99.22-2.01,0-3,0-.83,0-1.68,0-2.5.2-.39.2-.85,0-1.25,0-1,0-2,0-3,.2-.39.2-.85,0-1.25,0-.17,0-.33,0-.5.2-.48.21-1.02,0-1.5,0-3-.02-6,0-9,.22-1.23.21-2.51,0-3.75,0-.08,0-.17,0-.25.2-.39.2-.85,0-1.25.01-.66-.03-1.34,0-2,.2-.39.17-.85,0-1.25.13-.78.59-1.16,1.36-1.26.95-.12,6.66-.1,7.13.38.41.42.47,1.18.52,1.75.72,8.42-.15,18.72-.27,27.27-.02,1.59.66,5.58-.03,6.7-.74,1.19-4.16.47-5.35.4-.82-.05-1.92.45-2.86-.12-.8-.48-.48-3.62-.5-4.62Z"/>
  <path class="cls-94" d="M39.25,109.25c-.22-.07-.22-.15,0-.25,2.35.09,4.7-.03,7.06-.37l.29-.34-.09-30.59c-.05.32-.19-.13-.25-.46-.07.22-.15.22-.25,0-.22-.06-.22-.14,0-.25-2.48-.25-4.98-.25-7.5,0,.1.11.01.19-.25.25.22.08.21.16,0,.25-.05.53.12,1.11.51,1.73-.02,9.67-.02,19.51,0,29.52.22.07.22.15,0,.25-.4.26-.62-.37-.75-.75-.26-6.14-.22-12.3.13-18.49.16-3.2,0-6.33-.49-9.4-.8-.37-.85-1.24-.14-2.6.33-.62.11-1.2,1.18-1.45s5.02-.17,6.21-.06c.9.08,1.7.22,2.24,1.01l.08,31.07c-.34.77-.96.94-1.73,1.01-1.87.19-4.42.32-6.21-.09Z"/>
  <path class="cls-103" d="M10.5,77.5c.36.72.61,1.39.75,2l.33,1.76c-.15,6.52-.23,13.17-.24,19.95l-.34,1.04c.37.44.38,1.07,0,1.5-.22,1.07-.18,2.17,0,3.25.23.03.21.11,0,.25.99.45,0,1.91-.75,1.25-.22-.23-.61-.27-.51-.86.75-9.84-1.17-20.32.53-30,.04-.22.2-.3.24-.39.22.07.21.15,0,.25Z"/>
  <path class="cls-117" d="M82.75,85.5c.14.17.41.76.5,1,.93.79,1.02,1.79.25,3-.05,4.98.24,10.2.01,15.14-.03.68-.32,4.06-.49,4.26-.34.42-2.9.55-3.62.58-.81.03-2.22.05-3.02.04-2.88-.06-2.17-4.25-2.13-6.38.07-3.68.24-7.41.25-11.13-.21-1.8-.22-3.66,0-5.5.06-.21-.03-.45.13-.74.1-.17.3-.19.37-.26,2.33-.87,5.35-.64,7.75,0Z"/>
  <path class="cls-28" d="M109.5,84.75c-.51.48-.51.98,0,1.5l-.33.47c-1.09-.13-2.01.05-2.56,1.06.16,6.22.2,12.38.11,18.47.35,2.33,1.76,2.79,3.19.69l.59.05c.55-.29.61.09.25.5-.11.33-.43.69-.75.5-.73,1.08-.23,1.58,1.5,1.5-2.27,1.28-4.54.09-6.75-.25-1.7-.5-3.5-.83-5.26-.5l-.24-.25c.02-.21.04-.37.11-.39,1.43-.37,4.36-.04,5.64.64,1.18.31,1.6.06,1.25-.75-.23.07-.32-.02-.25-.25-1.05-6.46-.75-13.52-.3-20.13.65-.83.62-1.51-.11-2.04.13-3.72.13-7.44,0-11.16l-1.34-1.67c.98.1,2,.79,2,1.88v10.25c0,.76,1.26-.06,1.64-.11.51-.07,1.08,0,1.61-.01Z"/>
  <path class="cls-121" d="M12.5,81.5c-1.38-.62-.5,1.39-.5,1.88v24.75c0,.14-.92.82-1.17.85-.43.05-.42-.3-.58-.47.59.22.69-.73.75-1.25.32-1.44.4-3.03.24-4.75.09-1.37.5-.76.05-.2-.03.04-.15,0-.29-.04.04-5.2-.2-10.44-.12-15.63.02-1.32.44-2.71.38-4.26-.04-.9-.65-2.06,0-2.86.64-.06,1.52,1.35,1.25,2Z"/>
  <path class="cls-103" d="M38,108.25v.25c-.41-.26-.25-.95-.25-1.37-.1-8.16.72-17.84,0-25.76-.04-.39-.2-.74-.26-1.12-.77.24-.36,1.2-.56,1.82s-.78,1.27-.94,1.93c-.03-.92-.28-1.25-.75-1,.37.14.36.6,0,.75.34.21.59.37.75.5-.13.47-1,1.9-1.25,2.5-.37.66-.69.48-.5-.25q.35-.65,0,0c-.48.27-.56-.06-.25-1,1.18-2.75,2.06-5.05,3.5-7.75-.57,1.41.38,2.25.51,3.61.82,8.48-.77,18.35-.01,26.89Z"/>
  <path class="cls-80" d="M104.25,72.75c.71.6,1.31.56,1.48,1.64.51,3.24-.39,7.67,0,10.99.07.62.79.38.78.98,0,.34-.67.92-.77,1.75-.52,4.29-.28,13.26,0,17.77.04.64.28,1.23.26,1.87-.62.37-.8.16-.5-.5-.49-6.45-.57-12.96-.25-19.53.63-.81.62-1.43-.02-1.85.2-4.07.13-8.11-.23-12.11-.06.21-.15.21-.25,0l-.22-.22c-1.94.04-3.96.05-6.07.02-.44.31-.76.38-.96.19-.17,5.06-.25,10.14-.25,15.25.31.15.36.64,0,.75-.09.53-.26.69-.5.5-.35.05-.6-.28-.75-1-.32-.08-.39-.72-.25-1-.21-.18-.24-.36,0-.5l1,.75.28-15.09c.21-.37.42-.57.85-.65,1.08-.21,5.15-.13,6.37,0Z"/>
  <path class="cls-84" d="M136.75,94.25c1.97.1,3.88.18,5.75.25-2.17.48-6.16.42-8.61.51-1.52.05-3.08-.43-4.39.24-.22-.71-.2-1.55,0-2.25,1.79-.23,3.75-.41,5.62.13.3-1.35.33-2.79.08-4.32l.55-.32c.61.66.8,2.42.86,3.48-.33.9-.29,1.65.14,2.27Z"/>
  <path class="cls-35" d="M179.75,105.75c.85-.87,1.16.69.25,1-.26.29-.35.21-.25-.25-.07.13-.15.12-.25,0-.42-.13-.64-.21-.25-.5-.9.11-1.05-.9-1.12-1.63.13-4.32,0-8.61-.38-12.87-.31-.24-.64-.6-.5-1-.35-.29-.54-.83-.5-1.25,1.31.6,1.69,2.46,1.93,3.7.44,2.36.03,11.64.56,12.45.12.18.4.24.51.35Z"/>
  <path class="cls-95" d="M122.75,104c-.1-.25-.06-.46.14-.64l2.11,2.39c.35-.33.48-.19.25.25l1,.75c.06-.21.14-.21.25,0,.22.07.22.15,0,.25.42.11.76.4,1,.75,1.09.13,1.93.46,2.5,1,1.83.33,3.65.48,5.5.25.19-.75.67-.62,1,0,.31-.65.46-.91,1-.25.15-.45.57-.7,1.25-.75-.04-.25.21-.42.75-.5.05-.22.13-.21.25,0,.19-.22.37-.27.5,0-3.34,2.58-6.61,3.09-10.75,1.75-.27-.28-.63-.42-1-.5-2.63-1.14-4.18-2.39-5.75-4.75Z"/>
  <path class="cls-94" d="M168.5,85c-.88.12-1.13.37-.75.75.49-.44,1.01-.19,1,.5.24-.07.32.01.25.25.23.3.23.47,0,.5-1.11-1.09-4.19-1.26-5.35-.23-1.85,1.63-1.01,3.55.12,5.29.1.16.45.17.49.36.24,1.16-.37,1.1-.75,1.58-.35.33-.48.19-.25-.25-.06-.25,0-.6.18-1.04-.65-.6-.88-1.08-.68-1.46-.79-.96-.9-2.7-.25-3.75-.21-.43.07-.6.5-.75-.27-.34-.16-.48.25-.25.61-.66.84-.92.5-1.75,1.43-.18,3.55-.73,4.75.25Z"/>
  <path class="cls-34" d="M169.75,93.75c.7.53,1.01,3.51,0,3.5l-.5-.31c.12-1.34-.07-1.52-.55-.55-3.26,1.49-5.12,4.94-3.69,8.41l-.26.71c-.01.26-.18.26-.5,0-.1-.38-.26-.71-.5-1-.72.08-.75-.24-.25-.75-.2-1.35-.03-2.68.5-4-.07-.08-.13-.16-.12-.24.04-.67,1.72-3.46,2.62-2.76-.06-.54.23-.97.88-1.27l.12-.73c.59-.26,1.26-1.08,2.25-1Z"/>
  <path class="cls-6" d="M171,107c-.07.16-.16.16-.25,0-.09-.16-.16-.34-.25-.5l-.4-.44c-1.03.07-1.49-.3-.6-1.06-.67-.26-.44-.77.25-.75.2-1.94.2-3.86,0-5.75-.68-.39-.67-.85,0-1.25.93-1.09.09-2.16,0-3.5-.01-.17,0-.33,0-.5.29-1.54.23-3.42,0-5,0-.08-.01-.17,0-.25-.27-.36-.22-.65.25-.5l.63.12c.57,5.62.6,11.36.09,17.22.31.77.4,1.48.28,2.15Z"/>
  <path class="cls-59" d="M97.5,108.5c-.08.11-.16.1-.25,0-.16-.2-.63-.27-.51-.86v-13.39c-.91.15-1,1.22-1.79,1.82-1.85,1.39-3.42,1.28-5.19-.07-.33-.35-.19-.48.25-.25.47-.46,1.36-.17,1.5.5,1.5.36,2.94-.5,4-1.5-.22-.26-.08-.38.25-.25l.65-2.34c.79-.25,1.1.16,1.11.92-.3,5.22-.3,10.36-.01,15.43Z"/>
  <path class="cls-18" d="M10.5,77.25c.76-1.9,2.43-1.01,3.86-.99,2.16.03,5.35-.59,6.63,1.43.19.29.15.63.25.81-.13.24-.3.16-.5-.25-.73.21-1-.03-.75-.75l-.89-.43c-2.58.28-5.12.25-7.61-.07-.14.28-.47.62-.75.5-.07.22-.15.22-.25,0v-.25Z"/>
  <path class="cls-109" d="M122.25,99.75c.62.08.62.33,0,.75.57.22.56,1.01,0,1.25.67.23,1,.82,1,1.75.34-.5,2.15,1.66,2.13,1.82l-.38.43c-.55-.48-1-.87-1.61-1.53-.27-.28.07-.75-.64-.22-.33-.5-.57-1.17-1-1.75-.34-2.33-1.07-1.85-2.19,1.45l-.31.05c-.07.22-.15.22-.25,0-.13-.7,0-1.42.36-2.17-.45-2.27.01-3.54,1.39-3.83-.38-.34-.22-.51.25-.25.31-1,.71-.77.83.2-.03.77.11,1.46.42,2.05Z"/>
  <path class="cls-51" d="M90,84.75c-.89.31-1.06.73-.5,1.25.19.08.18.16,0,.25-2.79-.48-4.54,1.11-6,3.25.01-1.19.24-1.66-.25-3,.49,1.05,1.09.24,1.75-.25q.65.36,0,0c.4-.3,1.28-1.34,1.67-1.45.58-.17,2.67-.33,3.33-.05Z"/>
  <path class="cls-34" d="M64,107c.55.5.2.95-.5.75-.26.23-.51.4-.75.5-.45,1.16.46,1.23,2.72.21l.28.04c.18-.26.37-.29.5,0-4.28,2.04-6.73,2.16-11,0-.06-.26.11-.26.5,0,.25-.28.7-.11.75.25l2.43.52c.16-.32.35-.57.57-.77l.21-.27c1.35.42,2.51-.23,3.46-1.93l.58-.05c.07-.21.15-.2.25,0,.35,0,.35.24,0,.75Z"/>
  <path class="cls-67" d="M28.5,100.75c-.11.51-.11,1.06-.33,1.55-.96,1.13-2.19,6.24-3.35,6.66-.91.33-1.01-.44-1.32-1.2-.21-.68.02-.75.5-.25v.25c.39-.34.81-.59,1.25-.75-.05-.45.11-.95.5-1.5-.48-.35-.34-.54.25-.5.03-.46.28-.87.75-1.25-.65-.77.26-2.07,1-2.5.03-.31.12-.56.25-.75.19-.46.35-.54.5-.25.2,0,.2.16,0,.5Z"/>
  <path class="cls-93" d="M131.25,102.25c2.35,2.73,5.22,4.34,8.75,2.5.67-.16.71,0,.25.5-.71.72-1.71,1.05-3,1-.05.25-.39.23-.5,0-1.34.05-2.43-.28-3.25-1-.69.69-2.49-.99-2-1.75-.28-.11-.41-.46-.5-.75-.07.22-.15.22-.25,0-.21-.06-.21-.14,0-.25-.4-.5-.4-.75,0-.75.18-.02.35.15.5.5Z"/>
  <path class="cls-108" d="M136.5,84.75c.46.5,1.61.92,2.25.75.49.27,1.6.96,2,1.25.52.45.42.61-.25.5-.15.61-.62.68-1.09.32-.82-1.19-2.46-1.3-3.16-.07.07.17.12.33,0,.5-.37.05-2.02-2.25-2-2.48.13-.33.54-.59,1.25-.77-.22-.07-.22-.15,0-.25.15.01.72.19,1,.25Z"/>
  <path class="cls-68" d="M49,93c.22.06.22.15,0,.25.09,1.05-.08,1.8-.5,2.25-.2,1.11-.2,2.19,0,3.25.12.03.24.07.34.14.11.07.16,2.29.16,2.61.85.28,1.23,1.17,1,2,.33.37.18.52-.25.25-2.35-3.68-2.65-7.15-1-11.25.53-.29.69.16.25.5Z"/>
  <path class="cls-10" d="M90.25,92.25c.21.08.21.16,0,.25-.17.4-.45.81-.84,1.24.25.7.45,1.36.59,2.01l-.25.25c-.81-.62-1.63-1.35-1.37-2.53.1-.46,1.85-1.94,2.15-2.56.37-1.03.18-2.1.22-3.16-.06-.44.02-.61.25-.5,2.43.18.83,4.42-.75,5Z"/>
  <path class="cls-117" d="M167.5,108c-2.31,2-5.59,2.39-8.39,1.27-.62-.25-.69-.66-.86-.77-.04-.22.12-.22.5,0l.28-.18c1.74.81,3.65.95,5.72.43.06-.48.64-.73,1.75-.75.08-.21.17-.21.25,0,.39-.3.64-.3.75,0Z"/>
  <path class="cls-48" d="M18.5,96c.15-.85.62-.14.75.5.41.16.61.46.58.89l1.42,3.36c.64,1.18,1.27,2.45,1.5,3.75.29.27.5,1,0,1-1.61-3.05-2.89-6.32-4.25-9.5Z"/>
  <path class="cls-11" d="M34.25,86.5c.13.2.27.25.5.25-.56,1.37-1.17,2.65-1.75,4-.28.14-.53.31-.75.5-.47.27-.55-.07-.25-1,.63-1.55,1.31-3.14,2-4.75-.11.49.02.63.25,1Z"/>
  <path class="cls-18" d="M142.25,105.5c-.35.33-.48.19-.25-.25-.44-.48.49-1.48,1-1.25l-.19-.57c.67-.42,1.93-1.3.44-1.43-.32.36-.48.22-.5-.25.53-1.06,2.48-3.26,2.25-.9-.18,1.79-1.7,3.41-2.75,4.65Z"/>
  <path class="cls-94" d="M171.25,107c.36-.34.5-.19.25.25.12.46.37.8.75,1,.33-.02.66.23,1,.75.55-.34,1.3-.43,2.24-.25.91-.27,1.66-.27,2.26,0-.18-.64.02-.69.5-.25.32-.24.49-.24.5,0-.19.15-.21.46-.68.69-2.98,1.49-5.77.72-7.32-2.19h.25c.06-.22.14-.21.25,0Z"/>
  <path class="cls-81" d="M15.25,86.5c.31.29.7.77.25,1,.28.26.41.64.5,1,.11-.07.2.02.25.25.49.7.66,1.28.5,1.75.1.44.01.61-.25.5-.81-1.93-2.83-5.42-3-7.25-.26-.36-.26-.61,0-.75l.34-.05c.53,1.16,1,2.34,1.41,3.55Z"/>
  <path class="cls-42" d="M129.5,91.25c.49.57.49,1.18,0,1.75,0,.74-.04,1.51,0,2.25.12,2.58.79,4.62,1.75,7-.15-.18-.35-.32-.5-.5-.79.2-1.11-.57-.75-1.25-.45-.87-.7-1.82-.75-2.88-.4-1.53-.2-3.36,0-4.75-.48-.52-.23-1.96.25-2.38.23.02.23.27,0,.75Z"/>
  <path class="cls-78" d="M30.75,95.75c-.7,1.61-1.06,3.65-2.25,5,.03-.15-.03-.34,0-.5-.37-.14-.12-.69.25-.75.75-1.32.78-2.47.1-3.46l.15-.29v-.25l1,.25c-.15-.56.1-.83.25-1.25.99-.84.74.55.5,1.25Z"/>
  <path class="cls-121" d="M32.25,91.25c.45-.33.45-.3.5.25-.62,1.44-1.4,2.87-2,4.25.04-.48.06-1.08-.5-1.25.54-1.44,1.17-2.83,1.75-4.25-.11.49.02.63.25,1Z"/>
  <path class="cls-38" d="M29,95.5v.25c-.41.04-.74-.38-1-1.25-.08.22-.16.22-.25,0-.31-.32-.4-.57-.25-.75-.51-.33-.73-1.22-.5-1.75l-.75-1.5c-.23.03-.4-.22-.5-.75-.35-.33-.35-.5,0-.5l-.5-1c-.38.03-.42-.17-.25-.5-.11-.35-.1-.43.25-.25,1.23,2.64,2.9,5.16,3.75,8Z"/>
  <path class="cls-75" d="M156.25,101.75c.66.25.64.43,0,.75-.21.99-.21,1.99,0,3,.73,0,1.18.92.75,1.5.9.48,1.49.98,1.75,1.5-.13-.04-.34.03-.5,0-.08-.05-.45.11-.67-.07-1.96-1.53-2.58-4.35-1.83-6.68.24-.38.43-.49.5,0Z"/>
  <path class="cls-51" d="M82.75,85.5l-4.36-.26-3.39.26c.61-.68.67-.68,1.61-.76,1.39-.12,5.3-.25,6.14.76Z"/>
  <path class="cls-47" d="M143.25,102c.02-.56.43-.81.75-.5.29,1.33-.37,1.64-1,2.5-.73.39-1.47.9-2.21,1.53l-.54-.28c.01-.09-.21-.36-.25-.5.78-.41,2.15-1.63,2.68-2.3.04-.05-.07-.42.07-.7.17.08.33.17.5.25q.38.69,0,0Z"/>
  <path class="cls-111" d="M53,88c.32.67-1.08,2.06-1.75,1.75-.09.42-.33.83-.75,1,.59.31.38.75-.25.75-.08.57-.33.91-.75,1,.21.08.21.17,0,.25.28.64-.05.76-.5.25-.06-.18,0-.42-.25-.5.73-1.82,2.24-3.41,3.75-4.75.44-.26.62-.3.5.25Z"/>
  <path class="cls-93" d="M131,84.75c1.05.44-.87.89-1.52,1.02l-.48.23-.25.25c.07.64-.02.7-.5.25.12.79-.4.69-1,.5.09.71-.16.94-.75.5-.09.37-.65.51-1,.5-.07.22-.15.22-.25,0-.32.31-.46.16-.25-.25,1.8-1.57,3.68-2.54,6-3Z"/>
  <path class="cls-106" d="M135.5,84.5v.25c-.87.19-1.28.6-1.25,1.25-.41.53-2.25,1.02-2.75.5-.21-.07-.21-.15,0-.25-.17-.32-.06-.44.25-.25.34-.26.33-.7,0-1-.43.25-.56.15-.25-.25,1.33-.18,2.57-.38,4-.25Z"/>
  <path class="cls-87" d="M73.25,94.5l.25,1.75c0,.66,0,1.34,0,2l-.25,1.5c-.06,2.02-.28,2.11-1.25,3.75-.41,0-.19-.71,0-1,.75-2.83,1.14-5.59,1-8.5.07-.22.15-.22.25,0,.02.16,0,.33,0,.5Z"/>
  <path class="cls-19" d="M119.25,103.75c.27-.98,1.08-2.24,1.24-3.4.87-.67,2.03,1.11,1.26,1.9-.13-.17-.19-.65-.29-.7-1.29-.7-.94,1.02-1.23,1.76-.03.07-.8.95-.98,1.2-.43-.06-.27-.48,0-.75Z"/>
  <path class="cls-19" d="M140.75,86.75c1.75,1.27,2.25,1.98,3,4,.23.56.45,1.13.5,1.75-.02,1.78-.27,1.68-1.75,2-1.61-.22-4.39.42-5.75-.25l.25-.21c2.16.16,4.35.26,6.5-.04.2-.41.35-.78.25-1.25-.08-.22-.28-.28-.54-.25l-.46-2.75c-.69.05-1.02-.32-.75-1-.45-.37-.86-.79-1.25-1.25-.08.21-.16.21-.25,0-.22-.07-.22-.15,0-.25l.25-.5Z"/>
  <path class="cls-114" d="M51,104.5c.68-.32,1.01.01,1,1,.62-.42,1.8.85,1.5,1.5.8-.28,1.13-.08,1.25.75.46-.49.58-.4.5.25.47.12.64.29.5.5h-.5c-1.69-.86-3.2-1.67-4.51-3.18-.19-.21-.14-.7-.24-.82-.1-.42.07-.42.5,0Z"/>
  <path class="cls-19" d="M115.5,107.75c.14.07.14.16,0,.25-1.73,1.08-1.82,1.28-4,1.5-1.71.17-3.61.55-1.5-1.5-.16,1.19.75,1.44,2.75.75.47-.31,1.06-.56,1.75-.75.28-.34.76-.7,1-.25Z"/>
  <path class="cls-37" d="M62.5,85c-.46.26-.41.74,0,1,.36-.06.55.26.25.5-.4.35-1.02.33-1.84-.05-.67.06-1.14-.09-1.41-.45-.33-.36-.19-.5.25-.25.05-.31-.04-.56-.25-.75-.08.22-.17.22-.25,0,.17-.48,1.77-.51,2.14-.51.47,0,.93-.07,1.11.51Z"/>
  <path class="cls-93" d="M71,104.75c-1.73,2.14-2.25,2.55-4.75,3.75-.16.02-.36-.04-.5,0-.22-.07-.22-.15,0-.25.06-.31.39-.48,1-.5-.37-.32-.21-.48.25-.25.09-1.05,1.66-1.68,2.5-1.75-.32-.36-.18-.5.25-.25.07-.92.4-1.17,1-.75.07-.22.15-.22.25,0Z"/>
  <path class="cls-102" d="M167.5,94.75l.75.62c-.51.54-1.17.91-1.75,1.38-.36-.32-.81-.35-1.33-.11l-.42-.39c-.61-.07-.53-.25,0-.5.8-.3,2.07-.7,2.75-1Z"/>
  <path class="cls-19" d="M10.75,77.5c.26-.1.4.12.4.69,1.3.91,3.09,3.28,2.35,4.81.02.25-.02.5,0,.75-.66-.57-.7-1.49-1-2.25-.46-1.16-.56-1.06-1.25-2-.49-.68-.96-1.03-.75-2h.25Z"/>
  <path class="cls-12" d="M59.25,85c.08.02.17-.02.25,0,.35.16.63.48.25.75-.09.07-.17.16-.25.25.15.68-.17.88-.75.5l-.28-.07c.17-.63-.4-.73-.97-.68-.16.26-.54.44-1.14.55,0,.64-.5.66-.86.2l-1,.5c.07.5-.14.6-.5.25-.11.85-.44,1.1-1,.75l-.5-.25c1.61-1.43,1.82-1.67,4-2.25l1.75-.75c.05,0,.8.2,1,.25Z"/>
  <path class="cls-7" d="M163.5,94c-1.16,1.45-2.58,1.91-4.46,1.33-.77-.24-.7-.56-1.04-.83-.06-.5.22-.35.5,0,1.7.68,3.18.41,4.43-.79l.32.04.25.25Z"/>
  <path class="cls-51" d="M98.75,108.5c.08-.47.28-.45.5,0,1.84-.04,3.79-.07,5.5.75-1.11-.17-2.85-.53-3.87-.52-1.68,0-2.42,1.29-3.63-.23h.25c.37.06.79.06,1.25,0Z"/>
  <path class="cls-50" d="M114.5,85.75c1.24.61,2.88,1.51,3.5,2.75.37.21.64.48.25.75-.22.37-.41.12-.5-.25-.94-1.06-2.09-1.79-3.44-2.19l-.06-.56c-.22-.07-.22-.15,0-.25-.33-.33-.2-.36.25-.25Z"/>
  <path class="cls-65" d="M169.5,105c-.14,1.17.47.55.88.99.14.16.07.41.12.51-1.55-1-1.35,1.08-2.75,1.25l-.09-.29c1.01-.78,1.12-1.35.34-1.71-.43-.63,1.06-1.34,1.5-.75Z"/>
  <path class="cls-35" d="M65.75,85.75c.62.41.43.53-.25.5-.08.18-.17.18-.25,0-.75-.15-1.25-.4-1.5-.75-.79-.19-1.08-.26-1.25.5-1.49-.33-1.38-.63,0-1,1.66-.45,1.86.07,3.25.75Z"/>
  <path class="cls-66" d="M114.5,85.75l-.25.25c-.91.11-1.82-.06-2.75-.5-.37.65-.92.47-1-.25-.22-.07-.22-.15,0-.25,2.04.05,1.82-.33,4,.75Z"/>
  <path class="cls-87" d="M158.5,87.75c.53.4.44.57-.25.5.21.08.21.17,0,.25-.12.78-.46,1.19-1,1.25-.08.94-.16,1.85-.25,2.75.26.36.15.49-.25.25l-.25-2.5c.17-1.25,1.07-2.22,2-3,.48.11.36.22,0,.5Z"/>
  <path class="cls-32" d="M25.25,87.5l-.25.25c-.7-.35-1.12-1.1-1.25-2.25-.51-.29-.94-1.38-.5-1.75.07-.22.15-.22.25,0,.54,1.16,1.2,2.58,1.75,3.75Z"/>
  <path class="cls-59" d="M72.75,92.5c-.07.22-.15.22-.25,0-.44.09-.69-.24-.75-1-.66-.02-.99-.44-1-1.25-.61.36-.89-.24-.5-.75-.21-.12-.31-.68,0-.75,1.49,1.51,1.74,1.7,2.5,3.75Z"/>
  <path class="cls-22" d="M159,98.5c.41-.17.48-.15.25.25.22.07.22.15,0,.25-.58.37-1.02.86-1.34,1.49h-.66c-.1.41-.35.75-.75,1.01.32.35.17.5-.25.25h-.5c.55-1.71,1.89-2.45,3.25-3.25Z"/>
  <path class="cls-42" d="M21.25,78.5c.69,1.27.8,1.69,1.25,3,.22.3.53.73.25,1-.55.11-.87-.3-.97-1.24-.33-.55-1.23-2.19-1.28-2.67,0-.1.1-.22.25-.34.12.1.36.15.5.25Z"/>
  <path class="cls-75" d="M70.25,88.75c.04.23-.05.55,0,.75-.07.22-.15.22-.25,0-.26-.53-.68-.94-1.25-1.25-.43.49-.52.4-.5-.25-.59.16-1.04-.11-.75-.75v-.25c1-.55,2.17,1.17,2.75,1.75Z"/>
  <path class="cls-114" d="M119.25,104.5c-1.05,1.48-1.44,1.7-2.75,2.75h-.25c-.45-.58.82-2.04,1.5-1.75.15-.54.42-1.12,1-1.25-.09-.22.02-.48.25-.5h.25c-.05.2.04.52,0,.75Z"/>
  <path class="cls-105" d="M176.75,89.25c.26.45.32.83.5,1.25-.07.22-.15.22-.25,0-.11.04-.19-.05-.25-.25-.22-.06-.21-.15,0-.25-.48-.45-.9-.95-1.25-1.5-.36.32-.5.18-.25-.25-.59-.18-1.11-.52-1.5-1-.06.21-.14.21-.25,0-.22-.07-.22-.15,0-.25-.26-.37-.1-.45.5-.25,1.44.91,1.86.95,2.75,2.5Z"/>
  <path class="cls-117" d="M171.75,85.5c.2.16.33.32.23.57l-2.95-.68c-.37.16-.79.28-1.28.36-.1-.05-.35.04-.5,0-.06-.94.72-.64,1.25-.75,1.63-.35,1.79-.08,3.25.5Z"/>
  <path class="cls-94" d="M163.5,96.5c.29-.28.6-.41.75,0-.11.38-.56.63-1.34.74-.58.75-1.57.85-2.41.76-.2-.07-.2-.16,0-.25,1.2-.56,1.34-1.09,3-1.25Z"/>
  <path class="cls-58" d="M161.25,85.5c.31,0,.47.18.5.5.26.69-.51,1.01-1,.5-.13.47-.54.72-1.25.75,0,.77-.38.96-1,.5.04-.13-.03-.34,0-.5.7-.59,1.91-1.35,2.75-1.75Z"/>
  <path class="cls-80" d="M163.75,84.75c.07.02,1.28.56,1.25.62l-1.75,1.13c-.41-.35-.79-.59-1.25-.75v-.33c.51-.12.93-.35,1.25-.67.14-.01.38-.03.5,0Z"/>
  <path class="cls-31" d="M18,93.5c.09.34.08.41-.25.25-.36-.86-.84-1.77-1.25-2.75l.25-.5c.68.74,1.46,1.92,1.25,3Z"/>
  <path class="cls-31" d="M90,84.75c.16-.01.34-.01.5,0v.32c-.48.11-.82.42-1,.93-.75-.21-1.75-.11-2.5-.37.73-.46,2.18-.82,3-.88Z"/>
  <path class="cls-73" d="M19.25,96c.24.1.27.4,0,.5-.19-.31-.34-.59-.75-.5-.32-.76-.53-1.74-.75-2.25l.25-.25c.66.49,1.25,1.62,1.25,2.5Z"/>
  <path class="cls-34" d="M169.75,93.25c-.08-1.54-.08-3.46,0-5,.68.99.29,2.21.27,3.15-.01.65.54,1.32-.27,1.85Z"/>
  <path class="cls-110" d="M91.25,85c.48-.09,1.29-.06,1.25.5.52.02.77.19.75.5-.73.18-1.83.09-2.63-.21.49.42.62.82.38,1.21-.47-.04-.97-.37-1.5-1-.53-1.25.13-.48,1-1.25.32.03.5.17.75.25Z"/>
  <path class="cls-51" d="M74.5,92c-.42-1.6-.42-3.93,0-5.5,0,1.2-.02,2.42,0,3.62,0,.66,0,1.32,0,1.88Z"/>
  <path class="cls-37" d="M179.5,107.75c-.22-.07-.22-.15,0-.25-.07-.29.19-.69.5-.75.06-.12.36-.15.23-.59-.09-.29-.37-.3-.48-.41.18-.57.86-2.04,1.22-.83.3,1-.93,2.19-1.47,2.83Z"/>
  <path class="cls-69" d="M23.5,105.75l.5,1c.17.1.17.35,0,.75l-.5.25c-.24-.6-.53-1.59-.75-2.25-.02-.05.13-.61,0-1,.07-.22.15-.22.25,0,.71-.12,1.1.85.5,1.25Z"/>
  <path class="cls-80" d="M109.75,84.75c.24.1.22.47-.04,1.11,1.18.57,1.81,1.74,2.29,2.89.48.14.48.36,0,.5.15.17.16.34,0,.5-.03.55-.25.46-.5,0-.55-.22-.96-.83-1.23-1.85-.55-.59-.81-1.14-.77-1.65-.67-.38-1.31-.4-2-.63l2-.87c.08,0,.17,0,.25,0Z"/>
  <path class="cls-73" d="M95.75,87.75c.04.14-.03.35,0,.5-.07.22-.15.22-.25,0-.65-.13-.7-.26-.25-.75l-1.25-1c-.24.48-.37.21-.5-.25-.54-.44-.44-.55.25-.5,1.11.46,1.68.83,2,2Z"/>
  <path class="cls-7" d="M138.75,85.5c.1.8-.23.46-.7.33-.64-.18-1.24-.53-1.92-.58l.37-.5c.78.17,1.5.33,2.25.75Z"/>
  <path class="cls-114" d="M158.25,94c.35.18.43.34.25.5-.13-.04-.34.03-.5,0-.04-.03-.29.06-.51-.18-.51-.58-.56-.91-.74-1.57l.25-.25c.07-.22.15-.22.25,0,.46.27,1.31.91,1,1.5Z"/>
  <path class="cls-87" d="M142.25,105.5c-.28.34-.42.85-.99,1.39-.29.28-.67.29-.76.36-.22-.07-.22-.15,0-.25-.4-.59.79-1.98,1.5-1.75l.25.25Z"/>
  <path class="cls-106" d="M125.25,88c.23.04.22.13,0,.25-.18.34-.43.59-.75.75.11.22.01.29-.25.25-.19.47-.44.72-.75.75-.37.32-.51.18-.25-.25.59-.75,1.01-1.36,1.75-2,.11.04.23.14.25.25Z"/>
  <path class="cls-16" d="M110.5,85v.25l-.03.4c.7.27,1.04.81,1.01,1.61.79.11,1.34,1.08.52,1.49-.53-.62-.84-1.38-1.37-2.01-.36-.42-1.25-.88-1.38-1.12-.25-.48.73-.28.5-.87.27,0,.6.25.75.25Z"/>
  <path class="cls-117" d="M118,88.5c.85-.02,1.16,1.41,1.5,2-.07.2-.16.2-.25,0-.29.21-1.19-.87-1-1.25-.03-.27-.13-.51-.25-.75Z"/>
  <path class="cls-94" d="M123,90.75c.02.91-.23,1.41-.75,1.5.33.39.19.52-.25.25-.07.22-.15.22-.25,0-.17-1.03.5-1.52,1-2.25.47-.28.61.15.25.5Z"/>
  <path class="cls-78" d="M33,90.75c-.07.17-.12.44-.25.75-.23,0-.37-.05-.5-.25v-1.5s.75,1,.75,1Z"/>
  <path class="cls-29" d="M72,103.5c-.37.62-.63.8-1,1.25h-.25c-.82-.54.27-1.74,1-2-.21-.08-.21-.16,0-.25.07-.22.15-.22.25,0-.07.26.05.7,0,1Z"/>
  <path class="cls-92" d="M174,86.75l-.5.25c-.65.32-1.41.02-1.25-.75-.49-.19-.48-.28,0-.5.81.37,1.03.55,1.75,1Z"/>
  <path class="cls-80" d="M120.25,92.5c-.07.22-.15.22-.25,0-.17-.18-.25-.43-.25-.75-.74.34-.83-.82-.5-1.25h.25c.06.11.56.21.7.68s-.01.92.05,1.32Z"/>
  <path class="cls-29" d="M67.5,87v.25c-.35.35-.5.19-.25-.25-.55-.13-1.08-.36-1.5-.75-.08.22-.17.22-.25,0l.25-.5c.58.28,1.71.22,1.75,1.25Z"/>
  <path class="cls-81" d="M122,92.5c.22.07.22.15,0,.25v.25c-.33,1.46-1.74,1.57-1.75,0,.52-.05.93-.13,1.25-.25.1-.14.15-.16.25-.25.05-.04.21.04.25,0Z"/>
  <path class="cls-7" d="M93.25,85.5c-.1.2-.35.2-.75,0-.22-.11-1.02-.43-1.25-.5.78-.54,1.45-.11,2,.5Z"/>
  <path class="cls-18" d="M23.5,83.75h-.25c-.41.02-1.07-.92-.5-1.25-.1-.33-.14-.68-.25-1,.75.39.68,1.57,1,2.25Z"/>
  <path class="cls-5" d="M145.75,82.5c0-1.25-.01-2.5,0-3.75.42.98.42,2.82,0,3.75Z"/>
  <path class="cls-117" d="M163.25,84.75c.19.8-.83.47-1.25,1,.18.15.1.23-.25.25-.4-.09-.59.24-.5-.5.41-.2,1.62-.71,2-.75Z"/>
  <path class="cls-47" d="M131.5,84.75c.03.12.13.23.25.25.71.11.6.71,0,1-.09.08-.17.09-.25.25-.07.22-.15.22-.25,0-.65-.36-1.4-.44-2.25-.25.46-.78,2.14-.26,2-1.25.15-.03.34.02.5,0Z"/>
  <path class="cls-7" d="M160.5,97.75v.25c.06.41-.81.81-1.25.75l-.25-.25c.77-.46.77-.41,1.5-.75Z"/>
  <path class="cls-114" d="M91,87c.23.07.23.15,0,.25-.01.23-.25.45-.25.5-.1-.77-.94-1.05-1.25-1.5-.04-.05.03-.17,0-.25.4.11,1.37.75,1.5,1Z"/>
  <path class="cls-32" d="M73.25,94h-.25c-.43-.09-1.01-1.23-.5-1.5h.25c.22.6.4.47.5,1.5Z"/>
  <path class="cls-55" d="M168,105.75c1.48.27.43,1.27-.25,2-.08.09-.16.17-.25.25-.25,0-.5,0-.75,0-.33-.35-.19-.48.25-.25-.08-.55-.58-.85-1.5-.88v-.37s.13-.34.13-.34c.79.05,1.5-.09,2.12-.41.06-.22.15-.22.25,0Z"/>
  <path class="cls-81" d="M179.5,107.75c-.05.07,0,.37-.13.5-.25.25-.55.19-.62.25h-.5c-.42-.65.38-1.54,1-1,.07-.15.16-.14.25,0v.25Z"/>
  <path class="cls-77" d="M36,84c0,.09.02.18,0,.25-.19-.04-.68.06-.75,0-.04-.03,0-.35,0-.5.3-.23.3-.48,0-.75.28-1.09.86-.1.75,1Z"/>
  <path class="cls-1" d="M145.75,104.5c-.02-1,.01-2,0-3,.43.72.42,2.33,0,3Z"/>
  <path class="cls-37" d="M58.25,84.75c-.34.85-1.17.6-1.75.75.44-.49,1.1-.75,1.75-.75Z"/>
  <path class="cls-19" d="M164.75,95.75v.5c.09.68,0,.73-.5.25-.25.02-.5-.02-.75,0,.23-.6.78-.57,1.25-.75Z"/>
  <path class="cls-42" d="M156.75,92.75c-.23-.86-.38-1.55-.25-2.5.53.6.14,1.72.25,2.5Z"/>
  <path class="cls-88" d="M121.5,92.75c-.27.37.29.81-1.25.25-.16-.16-.15-.34,0-.5l1.25.25Z"/>
  <path class="cls-46" d="M50.5,103.75c.65-.36.95.19.5.75h-.5c-.16-.2-.47-.31-.75-.75.1-.04.22-.25.25-.25.07-.23.16-.23.25,0,.32-.21.44-.09.25.25Z"/>
  <path class="cls-117" d="M170,87.5c-.05.16-.23.36-.25.5-.36-.22-.51-.76-.75-1v-.5c.6-.46,1.43.4,1,1Z"/>
  <path class="cls-91" d="M116.25,107.25h.25c-.43.35-.44.4-1,.75v-.25c-.23-.68.2-.97.75-.5Z"/>
  <path class="cls-77" d="M38.75,109c.16-.19.34-.17.5,0v.25c-.7-.16-1.04.32-1.25-.75-.02-.08,0-.17,0-.25.24.22.43.65.75.75Z"/>
  <path class="cls-18" d="M144.25,92.5l-.5-1.75c.26.7.51.58.5,1.75Z"/>
  <path class="cls-93" d="M93.25,85.5c.14.03.34.18.5.25-.06.16-.22.35-.25.5-.06.22-.14.21-.25,0-.22-.07-.22-.15,0-.25-.22-.18-.5-.38-.75-.5.24.03.53-.04.75,0Z"/>
  <path class="cls-32" d="M73.5,96.25c-.45-.35-.22-1.2-.25-1.75.44.34.24,1.2.25,1.75Z"/>
  <path class="cls-24" d="M123.5,90c.23.06.22.14,0,.25.52.38.38.57-.25.5-.07.22-.15.22-.25,0l-.25-.5c.19-.27.39-.36.5-.5.04.1.25.21.25.25Z"/>
  <path class="cls-120" d="M129.5,109.25c-.7-.23-.74-.39-1-.5.44-.04.87.04,1,.5Z"/>
  <path class="cls-49" d="M145.75,93c0-.5,0-1,0-1.5.4.24.41,1.25,0,1.5Z"/>
  <path class="cls-58" d="M167.75,85.75c-.15-.72.41-.54.87-.51.84.05,1.67.33,2.49.52.47.11.71.57.63-.26.17.07.33.17.5.25v.5l-.48.38c-1.09-.42-2.1-.55-3.02-.38-.19-.13-.73-.37-1-.5Z"/>
  <path class="cls-32" d="M73.25,99.75c.01-.47-.18-1.23.25-1.5,0,.47.17,1.23-.25,1.5Z"/>
  <path class="cls-63" d="M145.75,99c0-.42,0-.83,0-1.25.39.16.39,1.09,0,1.25Z"/>
  <path class="cls-10" d="M140.5,107v.25c-.09.07-.16.18-.25.25-.17,0-.33,0-.5,0-.75-.55.26-1.29.75-.5Z"/>
  <path class="cls-90" d="M145.75,75.25c.02-.4-.06-.89,0-1.25.39.16.39,1.09,0,1.25Z"/>
  <path class="cls-49" d="M145.75,94.75c0-.42,0-.83,0-1.25.39.16.39,1.09,0,1.25Z"/>
  <path class="cls-90" d="M145.75,78.5c0-.42,0-.83,0-1.25.39.16.39,1.09,0,1.25Z"/>
  <path class="cls-13" d="M152.5,75.25l.4,1.04c.47,10.25.49,20.53.08,30.83.24.68.25,1.22.02,1.63-1.14.15-4.5.16-5.65.01-.37-.05-.36-.11-.6-.26.16-.46.69-.65,1.59-.58l-.31-1.57c.28-3.59.49-7.21.64-10.85-1.04-6.43-1.44-13.22-.86-19.92.03-.36,4.18-.57,4.69-.33Z"/>
  <path class="cls-99" d="M152.75,74c.34.11.04.39-.25.5-.25.23-.25.4,0,.5.22.07.22.15,0,.25-.9-.16-1.79.15-2.62.2-.48.03-1.33-.59-1.59.21,0,3.99-.13,7.99-.05,11.97.04,2.1.05,3.15.65,5.1.65,2.11.03,9.62-.38,11.9-.21,1.17.19,2.72.49,3.86h-2.25c-.11-.07-.3-.09-.37-.24l-.13-33.75c.04-.21.13-.57.32-.64.84-.34,4.63-.22,5.82-.15.12,0,.24.13.35.3Z"/>
  <path class="cls-4" d="M153.75,75v33.5c-.23.14-.48.21-.75.25-.31-.52-.53-.99-.52-1.62.04-10.45.72-21.31.02-31.88v-.25c.06-.22.15-.22.25,0,.2-.63.63-.35,1,0Z"/>
  <path class="cls-13" d="M153.75,108.5c0-2.62,0-5.26.01-7.88.03-8.45-.01-17.09-.01-25.62-.72-.02-.68-.58,0-.75-.66-.19-.64-.28,0-.5v34.75Z"/>
  <path class="cls-90" d="M146.25,74.5c-.09-1.66,1.86-.97,2.86-.99,1.23-.02,2.41-.05,3.63-.14.45-.03.86-.45.75.38-.07.23-.54.43-.75.25-1.85.08-3.83-.14-5.65-.02-.51.04-.61.04-.85.52Z"/>
  <path class="cls-4" d="M153.5,73.75c.08,0,.17,0,.25,0v.5c-.3.48-.63.57-1,.25-.06.22-.14.22-.25,0l.25-.5s.33-.24.75-.25Z"/>
  <path class="cls-89" d="M46.25,77.25l.25.17.11,30.72c.02.4-.37.78-.61.36-.4.13-.74.13-1,0-.22-.07-.22-.15,0-.25l.23-.5c.15-2.39.06-5.59-.13-7.86l-.35.11c-1.14.5-.98-1.68,0-1.75-.62-.27-.71-1.03,0-1.25-.2-.39-.21-.86,0-1.25-.55-.53-.55-1.22,0-1.75-.21-1-.21-2.01,0-3-.48-.23-.48-.52,0-.75l-.51-.9c-.15-1.53-.45-8.36.13-9.19.11-.15.24-.28.38-.41l.34-.21c-.11-1.28.19-1.96.91-2.04-.15-.08-.15-.17,0-.25h.25Z"/>
  <path class="cls-52" d="M38.25,77.5c.36.18.49.39.5.75.85.03,1.02.69.5,2-.23,2.19-.17,4.52,0,6.75.18.33.18.67,0,1,.04,6.98.12,13.81.25,20.5.22.07.21.15,0,.25-.06.22-.58.19-.75,0-.55-7.21-.41-14.8-.5-22.13-.02-1.99.47-4.78.25-6.5-.18-1.43-1.13-1.24-.26-2.62Z"/>
  <path class="cls-70" d="M39.5,77.25c1.82.21,3.67.16,5.5,0,.35-.15.98-.2,1,.25-.09.47-.46.77-.49,1.13-.51,5.06.22,11.31.26,16.49,0,.84-.22,1.56-.27,2.38l-.5-.37-.25-17.38c-.22-.06-.21-.15,0-.25.2-.39.21-.85,0-1.25l-.2.3c-1.37-.19-2.81-.29-4.3-.3.05.71-1.09.55-1.5,0-.05-.05-.75.21-.5-.75.04-.06-.04-.21,0-.25.35-.17,1.01-.31,1.25,0Z"/>
  <path class="cls-101" d="M46.25,77.25l.5.15-.06,30.92c-.14.41-.42.59-.83.67-1.21.23-5.25.12-6.62,0-.16-.01-.38.04-.5,0v-.25h.75c.05-.22.13-.21.25,0,2.07-.07,4.16-.15,6.25-.25.1-.04.32.08.46-.03l.05-.33-.27-30.89Z"/>
  <path class="cls-52" d="M46,77c0,.08-.01.17,0,.25.01.07.01.18,0,.25-.31-.21-.64-.23-1-.25-1.83.16-3.67.21-5.5,0h-1.25c.07-.07.09-.22.25-.25,2.5-.25,5-.25,7.5,0Z"/>
  <path class="cls-101" d="M46,77c-2.14.32-5.53-.43-7.5,0,1.89-.44,4.15-.28,6.13-.25.42,0,1.11-.16,1.37.25Z"/>
  <path class="cls-64" d="M11,102.25l.5-.62c-.06,1.75.08,3.51,0,5.25-.03.61.18.82-.5.37,0-.08,0-.17,0-.25-.18-1.07-.22-2.18,0-3.25,0-.5,0-1,0-1.5Z"/>
  <path class="cls-121" d="M11,107c-.42-.75-.42-2.45,0-3.25-.02,1.06.08,2.21,0,3.25Z"/>
  <path class="cls-13" d="M82.5,108.5l-.5-.23-.21-15.33c.18-.76.34-1.57.47-2.44l-.34-.41c.59-.86.46-1.06-.41-.59-1.7,1.05-1.67,1.31-.14,2.72.2,2.13.16,4.27-.13,6.41.36,3.13.25,6.23-.18,9.29.85-.1,1.33.09,1.44.57-.69.69-5.38-.1-6.64.39-.29,0-.46-.17-.61-.39-.16-2.08-.16-4.17,0-6.25l.44-.15c-.2-.98-.09-1.76.31-2.35-.33-.39-.38-.83-.38-1.32.03-3.2.09-6.45.47-9.54-.48-.33-.5-1.61.16-1.64l-.09-.46c-.62.07-1-.11-1.16-.54.1-.36.28-.43.63-.5.67-.12,6.58-.06,6.88.12.73.44.18,1.3.29,1.7.09.35.61.55.67.84.03.14-.66,1.98-.72,2.71-.47,5.3.6,11.58.02,16.78-.04.35-.02.35-.26.6Z"/>
  <path class="cls-17" d="M75.25,87.25c.25.46.14,1.25,0,1.75.56-.07.52.7,0,.75.23.77.21,1.7,0,2.5.69,2.27.57,4.95,0,7.25.44.87.71,1.98,0,2.75v6.25c-.11-.17-.34-.28-.26-.6.35-6.86-.42-14.09.01-20.9.41-.34.55-.2.25.25Z"/>
  <path class="cls-43" d="M75,86.25c.9-.09,1.72.24,2.61.26.79.02,4.71-.43,4.89-.26.13.13.01.64-.26.86-.74.62-4.24-.08-5.36-.1-.28,0-.53.23-.63.23-.32.67-.49.72-.75,0-.07.22-.16.22-.25,0-.03,0-.09-.26-.25-.25.01-.23-.05-.57,0-.75Z"/>
  <path class="cls-13" d="M104.75,73.75c.22.11.17.31,0,.5-1.03.58-2.34.75-3.94.49-.19-.02-.37.07-.56.26.57-.36,2.45-.37,3.34-.31.06,0,.11.14.16.31.18-.01.38.02.5.17.32.41.06,9.14,0,10.41l-.5.3c.33-.15.64-.22,1-.12.07-.22.15-.22.25,0,.99.53,1.04,1.24,0,1.75-.25,2.98-.26,6.06,0,9,.21.08.17.57,0,.75-.26,3.02-.25,6.19,0,9.25.26-.06.43.19.5.75.19.24.35.33.5.5.08.09.17.16.25.25.82,1.13-.57,1.11-1.25.5-.07.05-.13.09-.18.08-1.12-.26-1.85-.38-3.04-.5-.21-.02-.3-.07-.28-.32.07-.45.37-.6.91-.48h-3.09s-.32-.52-.32-.52c-.19-.15-.36-.15-.5,0,.35.33.68.66,1,1-.19.79-2.17.69-1.78-.62.26-10.09.23-20.12-.08-30.11-.34-3.2.44-4.21,2.36-3.02l3.75-.25c-.26-.45.92-.49,1,0Z"/>
  <path class="cls-2" d="M97.5,73.75c.57-.58,2.47-.49,3.36-.51,1.3-.03,2.6.04,3.89,0,.01.17-.01.33,0,.5-.87-.34-.78,0-1,0l-3.75.25c-.08,0-.27.25-.57.18-.58-.13-1.26-1.16-1.44.43-.55,4.75.27,10,.27,14.75,0,6.21-.48,12.41-.26,18.64l1.5-.25c.48-.65,1.54-.68,2,0,.65.54,1.77.13,2.62.26.44.07.63.4.88.49.2.07.2.16,0,.25-1.84-.36-3.89-.92-5.75-.25-.17,0-.33,0-.5,0-1.3.41-1.42-.66-1.43-1.73l-.07-3.9c.14-4.93.22-9.8.25-14.61-.3-4.84-.3-9.68,0-14.5Z"/>
  <path class="cls-39" d="M106.25,108c.24.27.69.25.5,1-.7.22-1.27-.16-1.75-.25v-.25c.85.3,1.42.65,1.25-.5Z"/>
  <path class="cls-77" d="M36,82c-.18-.2.29-1.46.75-1.5.26.47-.29,1.99-.75,1.5Z"/>
  <rect class="cls-23" x="34.25" y="85" width=".5" height="1.5"/>
  <path class="cls-18" d="M35.25,83c.76-.15.47.4.5,1l-.5-.25c-.01-.21-.04-.59,0-.75Z"/>
  <path class="cls-76" d="M93.25,86v.25c-.43.4-.35.4.25,0,.13.02.34.18.5.25l1.25,1c.12.25.22.47.25.75q-.56,2.82,0,0h.25c.07.33.21.67.25,1,.85,1.64.76,3.39-.25,5.25-.05.08-.18.16-.25.25-1.06,1-2.49,1.85-4,1.5-.54-.12-1.02-.13-1.5-.5-1.26-.99-1.75-2.77.25-3.25.55.29.55.21,0-.25.43-1.42,2.67-3.24.75-5,0-.08.02-.21,0-.25l-1.13-1.25c.42-1.33,2.29.56,3.38.25Z"/>
  <path class="cls-101" d="M98.75,108.5c-.17,0-.73.55-1.25,0-.28-.42-.25-.89-.26-1.36-.14-4.66.13-9.35,0-14.01-.73-1.68-.99.53-1.5,1.37.48-1.96.52-3.27.25-5.25.26.31.54.66.75,1,.11.52.28.35.5-.5.02-.25,0-.5,0-.75l.25-.75c.41,1.61.32,3.69.26,5.39-.13,4.02-.79,9.87-.27,13.75.11.8.38,1.15,1.26,1.11Z"/>
  <path class="cls-73" d="M97.5,88.25c-.01.27.08.63-.25.75.1-4.58-.48-10.27-.01-14.65.04-.36.02-.35.26-.6-.15,4.82.2,9.69,0,14.5Z"/>
  <path class="cls-73" d="M97.25,89.75c-.02.35.11,1.51-.5,1-.06-.05.05-.41,0-.5l.5-.5Z"/>
  <path class="cls-93" d="M135.5,84.75c-.11.46-1.22.32-1,.87.17.42,1.61,1.57,1.75,2.38l.52.47c.21,1.7.24,3.46.17,5.1,2.12.4,4.3.55,6.56.43-2.12.57-4.55.1-6.75.25-1.33-.65-.32-1.19-.29-2.12.02-.69-.46-2.91-.71-3.63-.38-1.13-1.09-1.66-1.5-2.5-.16-.32-.33-.61-.24-.99l1.49-.26Z"/>
  <path class="cls-8" d="M134.25,94c.35.37-.02.45-.37.5-.89.11-1.96-.08-2.88,0,.19-1.45.95-.39,1.42-.3.33.06,1.3-.75,1.83-.2Z"/>
  <path class="cls-13" d="M175.25,89.5c.61-.18,1.02.92,1.01,1.03l.49-.28c.12.02.23.13.25.25.21.37.46.71.75,1,.4,4.27.53,8.57.39,12.92.09.86.2,1.46,1.11,1.58.1.11.15.36.25.5-.16.75-1.45.63-1.75,0-.35.78-.89.93-1.7.88-1.13-.28-1.98-.15-2.55.37-.73.29-2.25-1.63-1.5-2.25-.78-.49-.36-1.03.39-1.27.08-3.12.03-6.44-.14-9.98-.75-.16-.42-3.29-.17-3.68.71-1.08,1.37-.73,2.16,0l.26-.32c.09-.35.34-.6.75-.75Z"/>
  <path class="cls-82" d="M179.25,106c-.36.29-.73.29-1.02-.1-.57-.79-.1-9.89-.22-11.78-.02-.39-.2-2.5-.26-2.61,1.25,4.02-.06,8.82.52,12.85.15,1.05.4,1.01.98,1.65Z"/>
  <path class="cls-99" d="M179.5,106.5c.08,0,.17-.01.25,0,.18.3-.24.82-.5,1-.38.18-.78.85-1,1-.13.1-.34.18-.5.25-.8-.09-1.21-.42-1.25-1,.32-.45.75-.86,1.25-1.25.49-.06,1.23-.02,1.75,0Z"/>
  <path class="cls-16" d="M177.75,91.5c-.11-.23-.56.32-.75-1h.25c.14.33.36.54.5,1Z"/>
  <path class="cls-82" d="M180,106.75c-.13.26-.37.48-.5.75h-.25l.5-1c.11.02.21.14.25.25Z"/>
  <path class="cls-99" d="M128.5,93c.26.32.39,1.04,0,1.25-.24,1.07-.65,3.96.25,5.25.32-.46.58-.29.5.25.28.51,0,.69-.5.75-.92.4-.75,1.96.26,2.17-.39-.31-.39-.56-.01-.92.15-.48.37-.49.5,0,.26-.76,1.08-.05,1,.5-.44.61-.35.78.25.5h.25c.13.28.29.53.5.75.68.73,1.04,1.25,2,1.75.67.37.92.7.75,1,.69.28.45.73-.25.75-.56.24-.32.41.71.51,1.35-.14,3.51-.06,1.79,1.49-.32.04-.67-.02-1,0-1.21-.07-2.46-.15-3.75-.25-.39.29-.81.17-1.25,0-.95-.46-1.95-.8-3-1-.28-.35-.59-.57-1-.75v-.25c.14-.27.39-.52.75-.75.38-.44.8-.28,1.25.5-.06-.42.84-.12.83-.07-.02.07-1.1-.26-1.08-.68-1.22-.54.57-1.66,1-.5l.67-.21c.98.67,1.02.62.11-.16,0-.58-.41-1.23-1.03-1.13-.15.47-.38.47-.5,0-1.07.96-1.82,1.04-2.25.25-.24.07-.32-.01-.25-.25-.49-.1-.74-.02-.75.25.52-.09.97.22.75.75v.25c-.62.71-2.02-1.15-2.29-1.86l-.46.36c-.15-.21-.98-1.65-1-1.75.57-.24.53-1.01,0-1.25-.03-.24.05-.54,0-.75l-.28-.54c.03-1.65-.29-2.22-.97-1.71,0,.03-.19.11-.25.25-1.74,1.27-2.37-1.77-.82-2.63l2.42.74c.31-.15.36-.44.15-.86-.72.13-.79-.27-.25-.75.32-.43.69-.52,1,0,1.59-.95,2.19,2.15.54,2.8.14.45.19.71-.29.95,1.15,1.23,1.06,2.06-.25,2.5.67.35.66.88,0,1.25.5.68,1.24-.04,1.09-1.16-.35-.16-.32-.45.11-.86.9.18,2.05.36,2.94.29.04,0,.08-.12.11-.27-.58-.43-.78-1.14-.59-2.12-.03-1.42.06-3.83.84-4.88.25-.67.79-.45.75.25Z"/>
  <path class="cls-14" d="M143,104c-.29.39-.68.89-1,1.25-.41.47-1.07,1.4-1.5,1.75-.13.11-.69.04-.75.5-.08,0-.17,0-.25,0-1.59.26-3.22.27-4.88,0l-.62-.5.25-.75c.04-.48,1.11-.2,1.5,0,.99.2,1.99.2,3,0,.59-.22,1.09-.56,1.5-1,.84-.42,1.74-1.08,2.25-1.88l.5.63Z"/>
  <path class="cls-99" d="M134,107c1.98.06,3.77.5,5.5.5-.17.3-.51.35-.75.5-.59.06-1.01.31-1.25.75-.16.05-.86.23-1,.25.67-1.93-.75-.99-1.63-.99-.68,0-1.29-.48-2-.52-.9-.05-2.3.83-2.36-.49.89.2,1.81-.23,2.61-.23.31,0,.64.22.89.23Z"/>
  <path class="cls-119" d="M123.25,103.5c-.23-1.79,1.1-1.08,1.08.18l1.67,1.32c.39.4.48.74.25,1,.47.15.47.34,0,.5-.32.06-.65-.11-1-.5-.07-.05-.16-.17-.25-.25-.25-.92-1.16-1.44-1.75-2.25Z"/>
  <path class="cls-99" d="M130.5,108.75h-.5c-.96-.26-1.63-.52-2.5-1,.22.15,2.48-.28,3,1Z"/>
  <path class="cls-44" d="M130.5,108.75c.42,0,.83,0,1.25,0,1.28.1,2.53.19,3.75.25l-3.13.26c-.83-.02-1.58-.3-2.37-.51h.5Z"/>
  <path class="cls-45" d="M127.25,106c.48.52-.18.76-.75.75-.08,0-.18.02-.25,0-.22-.07-.22-.15,0-.25-.02-.16.03-.35,0-.5-.08-.41.25-.41,1,0Z"/>
  <path class="cls-33" d="M138.75,108c-.42.27-.72.58-1.25.75-.19-1.08.35-.71,1.25-.75Z"/>
  <path class="cls-109" d="M127.5,107.75c-.37-.21-.83-.28-1-.75.89-.29.94.71,1,.75Z"/>
  <path class="cls-109" d="M126.25,106.5v.25c-.85-.18-.66-.49-1-.75l1,.5Z"/>
  <path class="cls-13" d="M172.25,86.25c.35.11.88.57,1.25.75v.25c-.32.51-.92.96-1.78,1.35.46,2.69.29,6.06-.47,8.65.04,2.37.15,4.73.33,7.08l-.33,1.42c.74.04.69,1.12,0,1.25-.06-.03-.17.02-.25,0,.12-.88-.73-1.32-.77-2.12-.03-.55.27-1.14.28-1.74.08-3.49.03-7.09-.01-10.51-.02-1.36.24-4.03-.5-5.12-.04-.06-.9-.92-1-1-.09-.07-.15-.18-.25-.25,0-.6-.23-.88.57-.7s2.2.47,2.93.7Z"/>
  <path class="cls-107" d="M163,86.75c-.17.25-.34.5-.5.75-.66,1.04-.53,2.8.25,3.75.32.46.69.91.94,1.41,0,.31-.25.84-.44,1.09-1.31,1.74-3.04,1.3-4.75.75-.1-.14-.15-.4-.25-.5l.64-.29c1.32.84,1.93.92,2.9-.28l.46.32c-.07-.64.03-.69.5-.25.65-1.54-1.87-1.64-1.14,0-.6,1.49-3.99.58-2.01-1.02l-.34-.23c-.33-.35-.66-.52-1-.5-.84-.04-.56-1.35-.06-1.8.96-.12.96-1.06.92-1.86,1.75-1.64,2.16,1.78,2.12,2.89l-.02-2.69c-.02-.89.58-2.39,1.54-1.54.07-.22.15-.22.25,0Z"/>
  <path class="cls-117" d="M162.75,91.25c-.1-.14-.42-.23-.56-.55-.25-.58-.3-1.95-.18-2.58.1-.54.42-.51.5-.62-.36,1.38-.36,2.45.25,3.75Z"/>
  <path class="cls-13" d="M162,85.75c.38-.13,1.28-.11,1.75-.25-.26.28-.33.71-.5,1-.05.08-.19.15-.25.25h-.25c-.45-.09-.93-.23-1-.75.07-.03.15-.22.25-.25Z"/>
  <path class="cls-13" d="M164.75,96.25c.79-.27,2.12-.61,1.75.5-1.37,1.11-1.75,1.33-2.5,3-.53,1.33-.7,2.66-.5,4,.06.28.14.49.25.75.24.27.4.6.5,1,.8.19,1.22.53,1.25,1,.43.2,1.44.57,1.84.52.26-.03.32-1.09,1.16-.77l-1.5,1.5c-.79-.17-.96-.09-.5.25-.47.63-1.14.57-1.75.75h-.5c-.54-.47-1.26-.64-2.17-.51l-.33-.49c-1.72.78-5.51-1.09-2.93-2.44,2.51,1.26,2.9,1.26,1.16,0l.02-.57c0-.48.32-.97.93-1.47-.03-.94.16-1.62.57-2.03.07-.22.15-.22.25,0,.13.79.17,1.63.12,2.51.77.36.84-.37.88-1.01-.55-.18-.55-1.57,0-1.75-.35-.53-.21-.98.43-1.34-.3-1.17.14-1.73,1.32-1.66-.24-.27-.49-.52-.75-.75-.16.31-.34.52-.54.63,0,1.26-.71,1.23-1.44.51l-1.27.11c0,.76-.42.93-1.25.5v-.25c.37-.17.95-.63,1.25-.75,1.13-.47,2.67-1.11,3.75-1.5.21-.08.39-.21.5-.25Z"/>
  <path class="cls-22" d="M164.75,105.5c1.13.36,1.94.15,3,.25.11.97-1.51.72-2.25.75-.49-.23-.91-.58-1.25-1,.04.05.36-.04.5,0Z"/>
  <path class="cls-12" d="M163.5,103.75c-.39-1.81-.26-2.3.5-4-.12,1.38-.74,2.55-.5,4Z"/>
  <path class="cls-12" d="M164.25,105.5c-.39-.48-.31-.53-.5-1,.57.06.42.9.5,1Z"/>
  <path class="cls-34" d="M169.75,104.25c-.02-1.91.03-3.84,0-5.75.41.26.25.95.25,1.37.02,1.61.01,2.81-.25,4.38Z"/>
  <path class="cls-13" d="M11.5,77c.22.07.22.15,0,.25.25.28.42.61.5,1,2.14.17,4.35.14,6.5,0l1.01.17c-.27.59-.27,1.11,0,1.58.72-.18.85.12.5.75.39.18.64.51.75,1,.19.17.19.34,0,.5l.2.73c-.83.43-1.03.76-.58,1,.68-1.36,1.71-1.45,1.38.27.22.05.21.13,0,.25.14.65-.2,1.64-1,1.5-.15,1.05-.48,1.39-1,1,.12,1.01-2.28,2.62-2.91,1.55.11-1.03-.08-1.71-.59-2.04.39-.65-.12-2-.83-1.67l-.17-.34q-.59-.74,0,0l.49.41c-.34.3-.5.83-.49,1.59-.53-.59-1.35-2.63-1.75-3.5-.34-.73-.46-1.69-.86-2.51-.52-1.06-1.55-1.85-1.89-2.99.21-.43.38-.39.75-.5Z"/>
  <path class="cls-76" d="M20.75,78.25c.41,1.43,1.09,3.06,2,4.25.16.52.43,1.02.5,1.25.18.62.43,1.07.5,1.75-.07.21-.15.21-.25,0-.77,0-1.18-.46-1.25-1.23l-.5-.02-.37-1c-.31.49-.87,1.96-1.51,1-.9-1.34.82-1.11.88-2.01.07-.22.15-.22.25,0,.47.67.41-.45.27-1l.23-.25c-.97.16-1.34-.79-1.31-1.81-.19.32-.42.59-.69.81-.1-.13-.56-.28-.64-.5-.05-.13.76-1.02-.36-1.25.26-.31.67-.56,1.25-.75h.25c.31.25.49.53.75.75Z"/>
  <path class="cls-13" d="M20,77.5h-.25c-.11.15-.25.31-.43.32-1.31.08-6.97.23-7.49-.18-.13-.1-.23-.24-.33-.39v-.25c.86-.25.85.01,1.62.01,1.81,0,4.37-.28,6.02-.15.58.05.6.43.86.64Z"/>
  <path class="cls-13" d="M118.25,89.25c.21.26.88,1.06,1,1.25.08.12.42,1.03.5,1.25v.5c-.53.18-.58.92,0,1,.31,1.64,1.14,1.94,2.75,1.75.06.22.45.53.25,1-.39.4-2.96-1.8-3.21.69-.07.76.48,1.1,1.21,1.06-.33.73-.49.53-.72.89-.66,1.05.13,2.3-.28,3.48-.19.54-.43.74-.75,1.63-.09.26-.19.35-.25.5-.07.14-.16.14-.25,0-.21-.44-.29-.94-.25-1.5l-.28-.4c.77-2.16-.46-2.21-2.33-1.87-.84-.17-1.23-1.68-.39-1.98.38-.13.48-.56.29-1.29.1-.56.41-3.06.02-2.13l-.56.17c-.37-.17-.23-3.25-.09-3.36.09-.08.21-.11.34-.14.45-.67,1.67.22,1.98.81-.19-1.21.63-1.27,1.02-1.2l.5-.11c-.43-.13-.56-.69-.25-1-.54.02-1.57-.63-.75-1-.13-.08-.12-.16,0-.25.1.1.42.15.5.25Z"/>
  <path class="cls-13" d="M121,97.5c.14-.36-.24-1.34.75-1.25l.5,3.5s-.36-.12-.45-.41c-.21-.73.31-2.48-.8-1.84Z"/>
  <path class="cls-96" d="M122.25,100.5l.75-.37c-.13.64.48,2.52-.75,1.62-.06-.37.04-.85,0-1.25Z"/>
  <rect class="cls-81" x="85.25" y="86" width=".5" height="1" transform="translate(-1.11 171.89) rotate(-89.92)"/>
  <path class="cls-119" d="M64.5,106.5c.31-.89,1.28-.23,1.69.35.93-.2,1.79-.3.81.65-.1.05-.17.21-.25.25-.82.1-1.57.35-2.25.75.08.43-.87.77-1.25.5-.68-.21-.33-1.02.25-1.25.12-.21.29-.35.5-.75.08-.55.25-.71.5-.5Z"/>
  <path class="cls-114" d="M58.75,108s.71.48.75.5c-.14.28.39.95.12,1-1.09.22-2.22-.36-3.12-.75.07-.21.15-.21.25,0l.15-.32c1.03.7,1.64.56,1.85-.43Z"/>
  <path class="cls-32" d="M64.75,104.25c.1.62-.19,1.76-.75,2h-.25c.26-.64.6-2.25.75-3,.07-.22.15-.22.25,0,.22.2.21.76,0,1Z"/>
  <path class="cls-25" d="M62.75,108.25c.14.4.3.65.5.75.86,0,.95-.41,1.25-.5.36-.33.9-.64,1.25-.25v.25c-1.08.27-1.96,1.07-3.25.75-.11-.49.03-.64.25-1Z"/>
  <path class="cls-47" d="M64.5,106.5c-.06.15-.41.33-.5.5.04-.23-.05-.55,0-.75.15-.55.62-1.32.75-2,.07-.22.15-.22.25,0,.4,1.24.23,1.99-.5,2.25Z"/>
  <path class="cls-47" d="M63.5,107.75c-.27.45-.71.71-.25,1.25-.68,0-.5-.01-.5-.75.2-.33.3-.5.75-.5Z"/>
  <path class="cls-76" d="M15.25,84.5c.27.04.83-.1.97.03.12.1.16,1.21.33,1.56s.64.37.7.59c.15.56-.4,2.66.76,1.65.75-.66,1.02-.79,1.74-1.33.6-.61.95.18.75.75.22.19.22.56,0,.75-.28.84-.7,1.24-1.5.75-.41.99-.33,1.24.25.75.45-1.66,1.75.21,1,1.25.22.06.22.14,0,.25-.55.84-.72,1.16,0,2,.36-.34.5-.19.25.25.33.68.49,1.43.5,2.25.44-.11.69.53.25.75.43-.03.6.28.52.92,1.14.69,1.83,1.31,1.24,2.72l.4.09c-.37-1.73-.1-3.08.83-4.04-.71-.54-.87-1.01-.49-1.44-.11-.39-.2-1.16.25-1.25-.21-.63.23-.88.75-.5.03-.35.28-.68.75-1-.9.05-1.31-.11-1.25-.5-.1-.65-.18-1.32-.25-2-.49.46-.61.41-.5-.25-.56-.25-.78-1.61.25-1.5.42.62.75.79,1,.5.41.23.75.64,1,1.25.55,1.38,1.14,2.71,1.75,4,.05.19.23.27.25.75q-.44.24,0,0c.06.04.2-.04.25,0l1.13,2.04c.39.64.47,1.84-.38,1.96-.41-.08-.57-.3-.53-.66-.05.48.09.67.53.91.28.09.17.26,0,.5-.24.43-.49.85-.75,1.25-.09.27-.13.44-.25.75q-.62-.42,0,0c-.3.74-.67,1.81-1,2.5l-1,1.25c-.86.23-.35-.31-.22-.06.08.15-1.15,2.85-1.53,2.81v-.25c-.02-.24.04-.52,0-.75l-.5-1c-.19-.45-.33-.78-.5-1.25-.29-.27-.53-.86-.5-1.25.31-.66.23-1-.25-1-.42-.32-.75-.82-1-1.5-.36-.77-.61-1.52-.75-2.25.28-.5.21-1.11-.25-1.5l-.25-.5c-.23.7-.74.07-.5-.5.43-.84.35-1.25-.25-1.25-.47.06-.96-.82-.75-1.25.35-.77.27-1.19-.25-1.25-.46.04-.89-.58-.75-1,.37-.74.29-1.16-.25-1.25-.46-.03-.79-.45-1-1.25-.19-.78-.44-1.53-.75-2.25q.55-.62,0,0c-.07.21-.15.21-.25,0-.06-.62,0-1.36,0-2Z"/>
  <path class="cls-115" d="M25.75,105c.07-.22.15-.22.25,0-.08.13-.12.3-.25.5-.41.67-.57,1.17-.5,1.5-.18.41-.47.78-.5,1.25-.21.15-.75-.21-.75-.5s.92-2.54,1.13-3c.27-.58.42-.02.62.25Z"/>
  <path class="cls-1" d="M26,105h-.25c.04-.6.52-.98,1-1.25-.32.67-.45.76-.75,1.25Z"/>
  <path class="cls-16" d="M28.75,99.5c0,.11-.2.47-.25.75l-.5.25c.16-.47-.03-1,.75-1.25v.25Z"/>
  <path class="cls-76" d="M25.25,107l-.24-.15c-.12-.62.47-.94.74-1.35-.02.54-.29,1.02-.5,1.5Z"/>
  <path class="cls-99" d="M130.75,101.75c0,.25.01.5,0,.75-.35.35-.5.19-.25-.25-.23-.17-.74-.42-1-.5-.53-.31-.47-1.28.25-1.25.07-.22.15-.22.25,0,.22.71.37.77.75,1.25Z"/>
  <path class="cls-56" d="M136.75,106.25c-.26.18-.6.18-1,0-.4-.02-1.25.09-1.5,0-.06-.02-.6-.83-.75-1,.92.48,2.04.82,3.08.8l.17.2Z"/>
  <path class="cls-56" d="M138.75,106.25c-.57.14-1.07.14-1.5,0,1.22-.27,1.89-.44,3-1-.14,1.16-.78.84-1.5,1Z"/>
  <path class="cls-119" d="M130.5,102.25c.09.06.16.18.25.25,0,.08.02.17,0,.25-.38,1.96-2.02-.77-.25-.5Z"/>
  <path class="cls-99" d="M136.75,106.25h2c-.92.2-2.15.59-3,0,.33.02.67,0,1,0Z"/>
  <path class="cls-56" d="M131.5,103.5c-.05-.06-.75.21-.5-.75.37.1.5.38.5.75Z"/>
  <path class="cls-56" d="M140.5,87.5s.17,0,.25,0c.38.21.7.51.25.75.23.78.48.95.75.5.07-.17.16-.16.25,0,.29.38.46.44.75,1v.25c-.71.66-.71,1.16,0,1.5,1.09.66-.26.96-.57.9l.07.35-.37.52c-.24.03-3.29.02-3.43-.07-.18-.11-.62-.66-.7-.84.12-1.01.12-2.02,0-3.02.18,1.29.01,2.51-.49,3.66.27.19.17.33,0,.5.37.14.87.22,1.02-.21h4.81c.13-.33.24-.53.67-.54.02.19.45.99-.25,1.25-.28.1-5.3.09-5.89.01-1.68-.22-.76-1.22-.84-2.39s-.45-2.38-.52-3.62c0-.16,0-.33,0-.5l.41-.03c.85-1.61,2.09-.62,3.07.3.24-.05.5-.14.78-.27Z"/>
  <path class="cls-96" d="M140.5,87.25v.25c-.12.12.06.7-.63.77-.89.09-.94-1.22-2.05-1.22-.87,0-.77,1.87-1.57.45,0-.42,0-.84,0-1.25.72.08,1.65-.15,2.33.05.56.17.93,1.29,1.92.95Z"/>
  <path class="cls-76" d="M49,93.25c.64.48.9,1.34.76,2.59-.18-1.01-.02-1.71.49-2.09.67.35.92,1.12.74,2.31-.44,2.31-.2,4.33.72,6.07l-.21.37c-.07.22-.15.22-.25,0-1.16-.61-1.67-1.45-1.52-2.5.14.78-.02,1.28-.48,1.5-.07.22-.15.21-.25,0-.37-1.04-.43-1.68-.5-2.75-.2-1.06-.2-2.14,0-3.25.11-.75.2-1.54.5-2.25Z"/>
  <path class="cls-14" d="M49.5,92.75c.93-.73,1.61.36.75,1-.09,1.19.37,2.92-.75,3.75-.38-1.48-.18-2.75-.5-4.25-.02-.08.02-.18,0-.25l.5-.25Z"/>
  <path class="cls-56" d="M49.25,101.5c.5-1.01,1.62.48,1.15.82.09.64.04,1.04-.15,1.18-.05-.02-.17,0-.25,0-.18-.85-.68-1.11-1-2h.25Z"/>
  <path class="cls-111" d="M48.5,98.75c-.63-.91-.14-2.29,0-3.25.05,1.07-.07,2.18,0,3.25Z"/>
  <path class="cls-72" d="M90.25,92.25c1.89-.09-.04,1.69,0,.25,0-.09-.02-.19,0-.25Z"/>
  <path class="cls-56" d="M157,107c1.38-.44,2.55.77,3,1.75.98-.58,3.35-.8,4.25,0h.5c-2.74.8-3.4.59-6-.25-.64-.57-1.19-.77-1.75-1.5Z"/>
  <path class="cls-104" d="M167,107.75l-.25.25c-.08,0-.17,0-.25,0-.57-.07-1.3.15-1.25-.75.63.02,1.5-.22,1.75.5Z"/>
  <path class="cls-53" d="M21.25,100.75c.22.43.63.67,1,1.5.66-.2.69.64.25,1,.17.43.32.76.5,1.25h-.25c-.39-1.23-1.1-2.37-1.5-3.75Z"/>
  <path class="cls-20" d="M19.5,96c.28.82.2.29.5.5l.25,1.25c.51.03.63.45.25.75.5,1.11.44,1.19.75,2.25-.72-1.42-1.38-2.78-2-4.25-.05-.12.05-.38,0-.5.07-.22.15-.22.25,0Z"/>
  <rect class="cls-23" x="33.25" y="87.5" width=".5" height="1.5"/>
  <path class="cls-15" d="M172,105.5c.05.38,1.37,2.21,1.5,2.25.22-.78,2.54-.56,3,0,.68.37,1,.1,1.25,1-1.3.57-3.15.66-4.5.25l-1.5-1.5c-.18.06-.26-.04-.25-.25-.08-.07-.22-.23-.25-.25v-1.25c.13-.98.51-1.37.75-.25Z"/>
  <path class="cls-107" d="M173.25,109c-.78-.24-.56-.29-1-.75-.32-.11-.64-.39-.5-.75.7.11,1.39.8,1.5,1.5Z"/>
  <path class="cls-6" d="M171.75,107.5c.19.21.31.55.5.75-.65.03-.82-.42-.75-1,.09.08.17.16.25.25Z"/>
  <path class="cls-13" d="M17.25,90c.63-.09.63.9.25,1.25.12.27.51.25.75,1,.57.01.64.94.25,1.25.24.65.58.84.75,1.25.73-.07.75.92.25,1.25h-.25c-.35-.83-.93-1.68-1.25-2.5-.39-.98-.86-2-1.25-3-.28-.7-.38-.98-.5-1.75.25.39.78.86,1,1.25Z"/>
  <path class="cls-76" d="M15.5,86.5c1.15,1.25.52.74.75,2.25-.06-.09-.19-.16-.25-.25-.1-.37-.23-.72-.5-1-.11-.38-.21-.55-.25-1,.04.04.21-.04.25,0Z"/>
  <path class="cls-25" d="M16,88.5c-.28-.44-.33-.42-.5-1,.46.13.54.56.5,1Z"/>
  <path class="cls-101" d="M129.5,90.5c-.32,1.32-.25,1.15-.25,2.38v4.75c0,.15.64,2.51.75,2.88h-.25c-.68.24-.76-.35-.25-.75-.67-.95-.73-2.53-.75-3.75-.55-.14-.55-.61,0-.75-.04-.94-.04-1.85,0-2.75-.22-.08-.22-.17,0-.25-.07-1.29.04-3.08,1-4-.22-.07-.21-.15,0-.25.12-.4.29-.56.5-.5.02.99-.22,2.16-.75,3Z"/>
  <path class="cls-106" d="M131.5,86.5c-.43.9-.69.94-.95,1.41-.5.91-.33,2.46-1.05,3.34v-.75c.24-1.01.53-1.99.75-3-.26-.31.17-.59.5-.75-.22-.08-.22-.17,0-.25-.08-.6.07-.59.5-.25h.25c-.03.07.03.18,0,.25Z"/>
  <path class="cls-116" d="M29,95.75c1.1,1.73.72,2.01-.25,3.75,0-.08,0-.17,0-.25,0-.17,0-.33,0-.5-.22-.05-.21-.13,0-.25,1.32-1.18-.85-2.59-.75-4,.16.15.88,1.06,1,1.25Z"/>
  <path class="cls-85" d="M31.75,93.5h-.5c-.02-.53-.11-1.14.37-1.5l.12,1.5Z"/>
  <path class="cls-13" d="M26.25,90.5l.75,1.5c.16.47.37,1.25.5,1.75-1.1,0-.66-1.42-1-2.06-.51-.96-.54-.09-.75-1.94.21.24.32.51.5.75Z"/>
  <path class="cls-13" d="M25,87.75c.08.16.17.34.25.5l.5,1c.02.16-.02.34,0,.5-.35-.39-.67.02-1-1.25-.33-.18-.66-.35-1-.5-.34.53-.3.87-.25,1.5-.27.93-1.09.5-1.24-.35-1.59.55-1.86.13-1.51-1.4-.27-.53-.1-.69.5-.5-.3-1.05,1.38-2.72,1.5-.75.07-.21.15-.21.25,0l.37-.11c-.09-.5.04-.79.38-.89.33.16,1.01,1.78,1.25,2.25Z"/>
  <path class="cls-93" d="M27,92l-.75-1.5c.65.84.43.56.75,1.5Z"/>
  <path class="cls-117" d="M25.75,89.25l-.5-1c.12.24.39.04.5,1Z"/>
  <path class="cls-99" d="M160.75,99c.22.05.21.13,0,.25.27.39.6.72,1,1,.2.32.18.66,0,1h-.25c-.73,1.87-1.4,2.28-2,1.25-1.23.26-.98-1.32,0-1.74v-.51c.01-.72-.6-.57-.24,0-.08,1.12-.56,2.28-1.8,2.31l-.2,2.19.36.14c.19-2.17,1.68-1.28,2.39-.14.26.14,2.33,1.4,1.51,1.88-1.47.85-2.57-2-3.25-.26,1.36.78,1.66,1.78,3.5,1.38-.16.47-.74.8-1.75,1-.76-.08-.47-.43-.76-.6-.71-.41-1.52-.74-2.24-1.15-.28-.36-.61-1.05-.75-1.5-.21-1.01-.21-2.01,0-3,.02-.23-.05-.59,0-.75.02-.05.18-.19.25-.25.36-.27.61-.6.75-1,.78-.91.82-1.05,2-1.5.65-.25.38.07,1.25-.5.34.11.54.19.25.5Z"/>
  <path class="cls-26" d="M156.25,105.5c-.29-.92-.53-2.15,0-3-.07.99.05,2.01,0,3Z"/>
  <path class="cls-20" d="M143.25,102c.44.21,1.03-.08.12,1-.23-.14-.14-.73-.12-1Z"/>
  <path class="cls-56" d="M54,87.25c.38.02.63.35.75,1,.36.26.38.6.25,1,.25.07.5.07.75,0,.4-.58.71-.43.75.25.41.03.25.74,0,1-.27.25-.52.5-.75.75-.48.14-.75.4-.82.77l-.11,5.09c.01.31-.1.45-.32.4l-.47-.64-.1-5.09-1.15.74c.45.67.39,1.33.03,2.02.66.63.76,1.24.22,2,.37,1.02.86,1.35,1.46.97.25,1.4.36,2.84.32,4.34.52.33.34.73-.07,1.16.47,1.63-1.64,1.8-2.23.4-1.05.92-1.66.23-1.02-.9-.31-.93-.94-1.26-1.01-1.62-.42-2.4.36-4.91-.24-7.13-.06-.23-.18-.91-.27-.98-.11-.09-.39.03-.48-.02-.01,0,0-.2,0-.25.38-.22.63-.55.75-1,.09-.41.09-.39.25-.75.42-.24.62-.54.75-1,.47-.57,1.18-1.27,1.75-1.75.31-.26.66-.52,1-.75Z"/>
  <path class="cls-56" d="M50.25,91.5c-.15.71.43,1.16-.75,1,.04-.26.54-.77.75-1Z"/>
  <path class="cls-56" d="M50.5,90.75c.18-.39.49-.68.75-1,.07.58-.1,1.03-.75,1Z"/>
  <path class="cls-56" d="M128.25,86.5c1.76.12.64,2.49-.5,2.75l-.25,2.25c.7-.03.88.97.25,1.25-.04,2.27-.56,4.74-.25,7-.94.17-1.94.27-2.99.32l-1.01-2.07c-.61-2.24.16-1.14.52-1.65.15-.21.31-1.21.25-1.45-.02-.06-.96-.63-1.02-.65-.71-.15-.78-1.59,0-1.75-.46-.66-.2-.7.5-.5-.47-.39-.12-1.16.5-1.25.79-1.2,1.79-2.23,2.98-3.08l.02-.67c.37-.19.24-.26,1-.5Z"/>
  <path class="cls-54" d="M128.75,86.25c.68-.35,2.94-.79,2,.25-.04.05.04.2,0,.25-.45.29-.78.71-1,1.25-.02.08.02.17,0,.25-.97.99-1.08,2.67-1,4,0,.08,0,.17,0,.25-.04.24-.12.41-.25.5l-.75-.25c0-.09-.24-.96-.25-1.25l.25-2.25c.46-1.29,1.53-1.16.5-2.75.12-.04.25-.2.5-.25Z"/>
  <path class="cls-99" d="M127.25,87c2.33,1.29.13.89-.5,1.38-.27.21-.21.67-.39.87-.23.26-.64.18-.79.32-.28.28-.18,1.13-1.32,1.18-.66.13-.71,0-.25-.5-.35-.12-.27-.45.25-1,.08-.08.17-.17.25-.25.31-.18.56-.43.75-.75.01-.07,0-.18,0-.25h.25c.43-.04.76-.21,1-.5.22-.12.43-.34.75-.5Z"/>
  <path class="cls-76" d="M131.25,86.25c-.08.19-.47.21-.5.25.38-.75-1.41-.38-2-.25.05-.1.14-.22.25-.25.8-.21,1.66-.26,2.38-.75l-.13,1Z"/>
  <path class="cls-109" d="M126.5,87.5c.18.59-.66.89-1,.5.2-.45.73-.36,1-.5Z"/>
  <path class="cls-93" d="M131.75,85c.24.03.71-.13.75.13.14.95-.55.69-.75.87.25-.33.25-.67,0-1Z"/>
  <path class="cls-56" d="M72.5,92.5c.06.15.49,1.42.5,1.5.49,3.28-.17,5.54-1,8.5h-.25c-.22-.03-.21-.11,0-.25-.22-1.07-.05-1.57.5-1.5l-.23-.38c.4-2.12.41-4.21.04-6.28-.55-.71-1.51-2.26-.31-2.6.18.28.65.76.75,1Z"/>
  <path class="cls-71" d="M143.75,92.75c-.4.43-1.26.7-1.5,0-.43-.04-1.39-.41-2-.37.74-.92,1.53-.42,2.5-.38.01-.17,0-.33,0-.5-.69-.4-.71-1.1,0-1.5v-.25c.6,1.16.84,1.68,1,3Z"/>
  <path class="cls-108" d="M142,88.75h-.25c-.39.66-.9.18-.75-.5,0-.12-.28-.52-.25-.75.95,0,.95.86,1.25,1.25Z"/>
  <path class="cls-99" d="M51.5,102.5c.03.09-.09,1.31.5.75,1-.95-.81-3.36-.77-3.87.07-.83,1.02-.85,1.49-.23,1.35,1.77.05,3.9.38,4.36.41.57,1.57.34,1.65-.51.3.39.55.06.75-1-.37-.1-.35-.29,0-.5,0-.28.09-.45.25-.5.49.93.74,2.02.75,3.25.18.07.18.15,0,.25l-.24,2.53c-.66.05-1.16.29-1.51.72-.37-.18-.92-.5-1.25-.75-.05-.88-.46-2.56-1.5-1.5-.36-.36-.63-.6-1-1-.19-.21-.31-.56-.5-.75-.24-.26-.07-.43.5-.5.06-.29.14-.54.25-.75h.25Z"/>
  <path class="cls-79" d="M56.5,104.5c.29.19.35.67.25,1,.49.66.74,1.32.75,2-.25.6.28,1.07.75.5-.21-.41-.12-.49.25-.25.09.08.16.18.25.25l.25,1-2.25-.25-1.5-.75c-.23-.09-.34-.17-.5-.25-.16-1.28.13-1.02,1.25-1,.12-.11-.79-2.35.5-2.25Z"/>
  <path class="cls-45" d="M52,105.5c-.41-.94.95-.95,1.21-.71.08.07.54,1.4,1.28,1.58l-1,.62c-.7-.52-.96-.96-1.5-1.5Z"/>
  <path class="cls-46" d="M56.75,108.75h-.25c-.2-.09-.36,0-.75-.25-.18-.11-.33-.36-.5-.5.4.16,1.24-.18,1.5.75Z"/>
  <path class="cls-98" d="M95.5,94.75c-.78,1.03-1.81,1.72-3.15,1.77-.53.02-.65-.23-.85-.27,1.65-.07,2.68-.64,4-1.5Z"/>
  <path class="cls-4" d="M118,104.25c.24.22.15.64-.25,1.25-.36.44-1.13,1.46-1.5,1.75-.05.04-.71.48-.75.5-.28.12-.69.15-1,.25l-2,.75c-1.64.67-3.77.41-1.5-1.25-.39-.33-.01-1.05.5-1,.36-.71.63-1.45.75-2.25-.22-.08-.22-.17,0-.25.09-.34.62-1.08.96-.91.44.22,1.41,3.17.04,2.66q-.53-.24,0,0c.37.25.7.59,1,1q.16.69,0,0c-1.23-1.75.22-1.76,1.68-1.5.27-1.1.8-1.68,1.57-1.75-.31-.38-.17-.51.25-.25.63.04.77.65.25,1Z"/>
  <path class="cls-90" d="M111,107.5c-.3.52-.9.79-.75,1.5.72-.22,1.53-.14,2.25-.25h.25c-.93.46-3.63,1.19-2.75-.75.19-.19.53-.33.75-.5.07-.22.15-.22.25,0Z"/>
  <path class="cls-16" d="M114.5,108c-.47.58-1.09.64-1.75.75-.08.01-.17-.01-.25,0,.53-.9,1.42-.57,2-.75Z"/>
  <path class="cls-62" d="M63.75,85.5c-.1.22-.27.47-.5.75.62-.17.78.08.5.75.58-.37.75-.13.5.5.08.17.12.34,0,.5,0,.63-.16.8-.5.5-.32-.86-.57-1.18-1-2-.07-.13-.21-.4-.25-.5-.09-.24-.35-.38-.25-.75.67-.17,1.01.08,1.5.25Z"/>
  <path class="cls-51" d="M59.75,85.75l-.25-.75c.32.07.54.03.74.38-.11.19-.34.25-.49.37Z"/>
  <path class="cls-99" d="M67.5,100.25c.33-.18.6-.18.81-.01,1.65-2.51,3.15.64,1.19,1.26.3.68-.54,1.05-1,.5l-2,.75c.17.76.56.91,1.19.46.73.07,2.93,0,2.43-1.01l.38-.46c-.73-.32-.32-1.37.41-1.07l.59-.18c-.22-.08-.22-.17,0-.25.54-.14.69-.04.75.5-.17.5-.22,1.04-.5,1.5-.47-.29-.47-.13,0,.5-.19.83-.85,1.2-1,2-.33.24-.7.48-1,.75-.73-.44-.81-.36-.25.25-1.01.84-1.29,1.09-2.5,1.75.17-.85-.5-.35-1.11-.51-.49-.13-.84-.56-1.39-.49.23-.53.43-1.64.5-2.25-.17-.17-.17-.34,0-.5.07-.22.15-.22.25,0,.49.32.49.23,0-.25-.18-.22-.19-.53,0-.75.21-.73.54-1.15,1-1.25.45.02.69-.31.71-1.01l.54-.24Z"/>
  <path class="cls-96" d="M69.5,105.75c-1.25.25-1.11-1.41.25-1v.75c-.09.08-.16.17-.25.25Z"/>
  <path class="cls-99" d="M66.75,107.75c-.34.17-.63.35-1,.5-.4.16-.88.14-1.25.25.4-.98,1.37-.76,2.25-.75Z"/>
  <path class="cls-33" d="M57.5,85.75c.41-.14.87-.67,1.5-.5l-.25,1.25c-.12.12-.9,1.1-1,1.25-1.68,5.18-1.75,10.93-.74,16.28l-.26.22c-.07.22-.15.22-.25,0-.27-1.02-.67-2.05-.75-3.25-.32-2.1-.22-4.38,0-6.5-.15-1.69.1-3.02.75-4,.09-.47-.01-.95,0-1-.57-.38-.44-.8.25-.75-.33-1.09,0-1.67,1-1.75.27-.53.19-.95-.25-1.25Z"/>
  <path class="cls-56" d="M57.5,85.75c1.14.19.76.6.25,1.25q-.64-.47,0,0c-.61.78-.68.55-1,1.75-.33-.21-.66-.04-1,.5-.18,0-.1.43-.75,0,.17-.3.09-.63-.25-1-.19-.42-.27-.83-.25-1.25l1-.5c.81-.38,1.18-.48,2-.75Z"/>
  <path class="cls-86" d="M54.75,88.25c-.25-.02-.5.02-.75,0v-1c.15-.1.34-.16.5-.25l1,.63c0,.12-.6.41-.75.62Z"/>
  <path class="cls-1" d="M55.5,86.5l-1,.5c.48-.28.54-.28,1-.5Z"/>
  <path class="cls-76" d="M110.5,85.25c.09,0,.68.21,1,.25.74.12,1.24.37,1.5.75-.42.72.59.68.5,0,.13-.29.53-.21.75,0,.63.16,2.71,1.64,3.24,2.14.24.23.21.56.26.61v.25l-.49.29c-.66-.85-.91-.95-.76-.29-.39.69.03,1.27,1.25,1.75.08-.22.17-.22.25,0,.26-.47.66-.2.75.25-.06,1.02-.74.25-1,.5-.09.09.07,2.08,0,2.5-1.21.12-.85-1.48-1.04-1.71-.05-.06-1.2-.65-1.46-.79l-.39.24-.1,5.44c-.12.17-.3.18-.51.07l-.5-.23v-2.9s-.5.13-.5.13c-.49-.81-.79-2.22-.75-3.25-.17-.25-.26-.59-.25-1-.09-.3-.17-.64-.25-1-.01-.16.02-.34,0-.5-.15-1.22-1.09-2.57-2.25-3,.08-.38.4-.5.75-.5Z"/>
  <path class="cls-16" d="M114.25,86v.25c-.18-.05-.52,0-.75,0-.14.48-.36.48-.5,0l-1.5-.75c.95.13,1.81.36,2.75.5Z"/>
  <path class="cls-99" d="M65.25,86.25c.08.01.17-.02.25,0s.17-.02.25,0c.44.37.94.61,1.5.75.09.07.16.19.25.25.31.22.53.58.75.75.38.42.38.83,0,1.25-.28,1.04-.97.05-1.18-.48.12,1.39-.15,2.13-.82,2.23-.1-.09-.1-.26,0-.5-.22-.25-.55-.17-1,.25.19.43.16.53-.25.25-.49-.1-.5-.66,0-.75-.09-.46-.26-.88-.5-1.25-.51-.01-.53-.64-.25-1-.01-.16,0-.33,0-.5,1.24-.4.13-.74-.5-.5-.2-.27-.32-.47-.5-.75-.03-.64.63-.64,2,0Z"/>
  <path class="cls-52" d="M63.75,85.5c.41.14,1.11.51,1.5.75-.6-.09-1.66-.43-2,0-.08-.13-.6-.67-.5-.75h1Z"/>
  <path class="cls-36" d="M162.75,86.75c-1.96.25-.39,4.01-1.24,4.64-1.61,1.18-.22-3.46-1.64-3.14-1.51.34.12,2.23.12,2.38,0,.89-1.06-.44-1.37-.38-.43.09-.43,1.13-.38,1.5.4.09.73.26,1,.5.19-.04.66-.44.75.13.05.33-.71.83-.5,1.37,2.44.1,1.39-.81,1.78-1.46.35-.58,1.7-.11,1.92.59-.06.28-.26.45-.46.63-.33-.29-.49-.18-.5.25-.21.16-.59.21-.68.33-.15.19.04.62-.21.69-1.19.35-2.08-.45-3.11-.77-.63-.62-.87-.36-1-1.5-.2-.86-.2-1.77,0-2.75.15-.5.41-1.38,1-1.25.45.44.45.36,0-.25.02-.14.2-.34.25-.5.33-.17.67-.32,1-.5.63-.04,1.04-.29,1.25-.75.29-.15.74-.4,1-.5.51.12,1.01-.11,1,.75Z"/>
  <path class="cls-30" d="M158.25,88.25c1.94-.09-.09,2.27,0,.25,0-.08-.01-.17,0-.25Z"/>
  <path class="cls-44" d="M157.25,92.5h-.25c-.07-1.06-.04-1.77.25-2.75.07.89-.1,1.89,0,2.75Z"/>
  <path class="cls-56" d="M66.25,91c.71-1.06-.55-3.07,1.5-2.75-.22,1.34.3.86.5,1l.3-.19c.59.38,1.17.82,1.72,1.31l.48-.13c.35.46.56.56,1,1.25-.2.38-.82.73-1.25.75.1,2.62-1.82,2.06-1.98-.17-.93,1.36-1.89.45-2.27-.58-.43,0-.43-.18,0-.5Z"/>
  <path class="cls-15" d="M68.75,88.25c.58.31.99.72,1.25,1.25h.25c.04.16.37.57.5.75-.11.4.36.93-.37,1-1.18.11-.39-.79-.62-1-.1-.09-.78.13-.97-.03-.12-.11.07-.53-.54-.97-.29-.4-.29-.85,0-1.25.14.1.36.15.5.25Z"/>
  <path class="cls-26" d="M156.5,101.5c.08-.52.5-.7.75-1,.21.99-.52.81-.75,1Z"/>
  <path class="cls-52" d="M70,89.5l-1.25-1.25c.4.29,1.26.32,1.25,1.25Z"/>
  <path class="cls-56" d="M118.5,104.25h.25c-.25.56-.66.84-1,1.25-.16-.42.24-1,.25-1.25.08-.66.31-.64.5,0Z"/>
  <path class="cls-79" d="M173.5,87.25c.08,0,.17-.01.25,0,.43.45.9.79,1.5,1,.09.07.17.17.25.25.36.53.78,1.03,1.25,1.5.02.08,0,.17,0,.25.03.37-.02.75,0,1.12-1.38.61-.7-1.32-1.5-1.87-.77.19-1.02.44-.75.75.27.25.27.89.25,1.25-.7.14-.48-.49-1.01-.86-1.85-1.29-1.46,2.58-1.49,3.61.12,3.28.18,6.56.18,9.85-.35.56-.87.88-.97.13-.04-2.33-.11-4.66-.21-6.98.02-2.31.21-4.6.27-6.87.02-.65-.37-1.54-.29-1.95s1.66-1.17,2.27-1.17Z"/>
  <path class="cls-56" d="M176.75,90c-.68-.39-1.22-.61-1.25-1.5.55.51,1.08.61,1.25,1.5Z"/>
  <path class="cls-56" d="M175.25,88.25c-.79,0-1.32-.18-1.5-1,.7.14.99.6,1.5,1Z"/>
  <path class="cls-13" d="M160.75,86.5c.19,1.08-.35.71-1.25.75.42-.23.83-.54,1.25-.75Z"/>
  <path class="cls-53" d="M24,106.75c-.45-.22-.36-.68-.5-1,.57.19.43.57.5,1Z"/>
  <path class="cls-21" d="M95.25,87.5c-.6-.04-.98-.52-1.25-1,.62.26.9.3,1.25,1Z"/>
  <path class="cls-109" d="M124,90.25c-.08.66-.31.64-.5,0,.01-.07,0-.17,0-.25.1-.42.54-.53.75-.75-.04.31-.26.71-.25,1Z"/>
  <path class="cls-109" d="M124.5,89c.22-.21.33-.65.75-.75-.1.52-.12.72-.75.75Z"/>
  <path class="cls-72" d="M123.25,92.5c-.11.46.08,1.23,0,1.75-.07-.02-.71.39-1,0-.15-.36-.23-.86-.25-1.5v-.25c.08-.08.17-.07.25-.25.23-.71.98-.47,1,.25Z"/>
  <path class="cls-99" d="M123.25,90.75c.34.18.5.59.5,1.25-.06.13-.46.34-.5.5l-1-.25c.18-.39.1-1.16.75-1.5h.25Z"/>
  <path class="cls-96" d="M71.75,102.25c.01.08,0,.17,0,.25,0,.09.02.18,0,.25-.75.03-.81.14-.76-.63.08-1.18.6-1.09.76.13Z"/>
  <path class="cls-109" d="M120,92.5c.37,1.64,1.18,2.38,2,.5.01-.08,0-.17,0-.25.48.28.16,1.07.25,1.5.06.31.19.51.25.75-.03.52.27.92-.52.64-2.02-.71-2.1-.28-2.23-2.39-.57-.15-.57-.85,0-1v-.5c.09.27.17.46.25.75Z"/>
  <path class="cls-113" d="M120.25,93c.28,1.02,1.33.92,1.75,0-.1.76-.28,1.84-1.35,1.48-.65-.22-.52-1.51-.65-1.98h.25c.02.16-.04.37,0,.5Z"/>
  <path class="cls-52" d="M67.25,87c-.68.09-1.23-.09-1.5-.75.74.17.92.33,1.5.75Z"/>
  <path class="cls-119" d="M49.25,101.5c-.04-.42-.19-3.67.75-3,.38.27.12,2.32.29,2.84.11.33.98.53.96,1.16.1.39-.07.5-.25.75q-.42-.57,0,0c-.12.17-.37.32-.5.5-.06-.06-.23-.24-.25-.25-.03-1.15.42-1.91-1-2Z"/>
  <path class="cls-96" d="M93.25,86.25c.08,0,.17-.01.25,0-.04.2.07.68,0,.74-.1.08-1.5-.06-1.87.26-.65-1.29.56-1.1,1.62-1Z"/>
  <path class="cls-14" d="M124,90.25c0,.13.26.39.25.5-.04.49-.31.83-.5,1.25-.7.22-.56-.62-.5-1.25.01-.14.23-.35.25-.5h.5Z"/>
  <path class="cls-79" d="M147.63,104c.97-.21.79,3.88.24,4-1.18.25-.6-1.55-.61-1.88,0-.58-.58-1.91.37-2.11Z"/>
  <path class="cls-97" d="M152.5,74.5c.08,0,.17.01.25,0,.66.08.64.31,0,.5-.08-.01-.17,0-.25,0-1.62-.1-3.3.24-4.86.23-.25,0-1.04-.13-.89-.6.13-.41,4.88-.06,5.75-.13Z"/>
  <path class="cls-9" d="M153.75,74.25v.75c-.41.39-.69.06-1,0v-.5c.24-.03.58-.7,1-.25Z"/>
  <path class="cls-13" d="M44.75,78.25c.21.39.21.86,0,1.25-.01.08,0,.17,0,.25-.4,3.36-.02,7.03,0,10.5l-.48.07c-.14,2.22-.14,4.87,0,7.1.02.37.21.64.49.84-.03.5-.6,1.35,0,1.75.22.06.21.15,0,.25.11.5.21,1.28-.25,1.5q-.5-.81,0,0c0,1.88.08,3.79.25,5.75.58-.05.64.33.25.75v.25c-1.53.21-3.22.27-4.75,0l-.33-.04c-.05-7.1-.07-14.24-.04-21.43l.27-.58c-.08-2.45-.05-4.85.11-7.2.51.14,1.01.13,1.48-.01,4.37.15,1.55-.48-.93-.22l-.55-.52c-.22-.07-.22-.15,0-.25.88,0,3.99-.18,4.5,0Z"/>
  <path class="cls-70" d="M44.75,100c.32-2.36.95-1.81,1.01.12.03.95-.26,1.67-.27,2.5-.03,1.65.1,3.25.16,4.89.02.61.02.7-.65.75-.13-.23-.19-.49-.25-.75-.21-2.44-.21-4.86,0-7.25.01-.08-.01-.17,0-.25Z"/>
  <path class="cls-13" d="M44.75,90.25c0,.25,0,.5,0,.75-.21.99-.21,2.01,0,3,0,.58.01,1.17,0,1.75-.2.39-.19.85,0,1.25-.01.41.03.84,0,1.25-.59.56-.98-.51-.99-.89-.02-.43.25-.84.25-1.25-.01-1.84-.52-3.93-.28-5.75.08-.58.82-.82,1.02-.11Z"/>
  <path class="cls-56" d="M45,108.5c.26.07.7-.05,1,0-1.32.53-4.61.25-6.25.25-.28-.65.13-.97.5-.25,1.03-.08,2.1.06,3.14.02s.23-.39,1.61-.02Z"/>
  <path class="cls-13" d="M44.75,94c-.43-.72-.42-2.33,0-3,0,1,0,2,0,3Z"/>
  <path class="cls-13" d="M44.75,97c-.39-.16-.39-1.09,0-1.25,0,.42.01.83,0,1.25Z"/>
  <path class="cls-70" d="M40.25,108.5c-.21.02-.43,0-.5.25-.08,0-.17,0-.25,0v-.25c-.23-6.83-.2-13.67,0-20.5-.18-.42-.18-.84,0-1.25.05-.44.14-.55.27-.31-.14-2.43-.06-4.83.23-7.19.07-.21.15-.21.25,0v29.25Z"/>
  <path class="cls-13" d="M39.5,108.5c-.41-.26-.25-.95-.25-1.37-.08-6.37.04-12.76,0-19.13.07-.22.15-.22.25,0-.02,6.83.01,13.67,0,20.5Z"/>
  <path class="cls-89" d="M40.25,78.25v.25c.67.24.67.53,0,.75-.01-.04-.21.04-.25,0l-.26.09.02,5.86-.26,1.55c0,.42,0,.83,0,1.25h-.25c0-.33,0-.67,0-1-.19-2.24-.2-4.53,0-6.75-.05-.83.15-1.29-.5-2h1.5Z"/>
  <path class="cls-13" d="M39.25,87c-.44-1.63-.27-3.66-.25-5.38,0-.42-.16-1.11.25-1.37.12,2.18-.01,4.54,0,6.75Z"/>
  <path class="cls-89" d="M45,77.25c-1.61.42-3.89.42-5.5,0,1.79,0,3.73-.11,5.5,0Z"/>
  <path class="cls-89" d="M44.75,79.5c.05-.41-.03-.84,0-1.25.41.14.4,1,0,1.25Z"/>
  <path class="cls-99" d="M81.5,89.5c1.01.08.22,1.03-.45,1.22.17.96.42.94.61-.09l.58-.13.25,18c-.66-.12-5.25.32-5.24-.37,0-.98,3.27.3,3.46-.54-.16-1.4.27-2.9.3-4.2.04-1.65-.28-3.25-.27-4.75,0-1.91.79-5.58-.18-7.08-.29-.45-.88-.51-.82-.93.11-.8,1.19-.8,1.76-1.13Z"/>
  <path class="cls-40" d="M76.25,87.25c-.4.75.03,1.53.02,2.38-.06,3.33-.28,6.86-.27,10.12-.31,1.17-.62.78-.75-.25-.05-2.41,0-4.84,0-7.25.1-.68.18-1.35.25-2,.19-.68.19-1.18,0-1.5-.25-.38-.17-1.12,0-1.5.24.02.51,0,.75,0Z"/>
  <path class="cls-40" d="M75.25,99.5c.34.47.19.67.75.25,0,1.49.24,3.16.26,4.61,0,.35.19,5.22-.76,4.13-.07-1.87.08-3.77,0-5.64-.01-.32-.26-.57-.26-.61-.03-.91.02-1.84,0-2.75Z"/>
  <path class="cls-15" d="M81.5,89.5c.2-.33.3-1.18.98-.74s-.13,1.43-.23,1.74c-.17.49-.41.83-.25,1.5-.77.43-1.58-.76-1.47-1.34.08-.43.73-.5.91-.73.12-.16.03-.38.06-.43Z"/>
  <path class="cls-118" d="M75.5,88.75c.1.14.59-.41.51.63-.03.42-.06.76-.51.87-.11-.07-.19-.23-.25-.5v-.75c.03-.16.06-.27.25-.25Z"/>
  <path class="cls-13" d="M75.5,90.25c.04.59.16,1.61-.25,2v-2.5c.24.07.24.29.25.5Z"/>
  <path class="cls-13" d="M75.5,88.75l-.25.25v-1.75c.06.02.16,0,.25,0,.07.32-.1,1.37,0,1.5Z"/>
  <path class="cls-9" d="M82.25,86.5l-1.75.5c-.21-.93,1.22-.36,1.75-.5Z"/>
  <rect class="cls-41" x="75.5" y="86.5" width=".75" height=".5"/>
  <path class="cls-40" d="M99,106.75c-.09.66-.28.62-.5,0,.21-2.06,0-4.74.01-6.89.01-6.93.1-14.04,0-21,0-.63-.88-4.82.36-4.61l.13,32.5Z"/>
  <path class="cls-40" d="M99,106.75c1.54.26,2.82-.25,4.35.19,1.06-.46.4-1.24.39-2.06-.08-5.82.05-11.66.06-17.47l.71-.42.23,20.34c-.19.66-2.53.39-3.23.41-.66.01-1.34.03-2,0-.41-.02-.84.02-1.25,0-.2-.42.24-.86.25-1,.16.02.34-.03.5,0Z"/>
  <path class="cls-43" d="M104.75,74.25c.22,3.83.22,7.66,0,11.5-.12.67-1,.52-1,.12v-10.88h-3.5c-.03-.59-.08-.44.37-.5.79-.1,1.72.09,2.52.02.65-.06,1-.75,1.61-.26Z"/>
  <path class="cls-2" d="M105.5,107.25c-.26-.33-.29-.15-.5-.75-.26-3.06-.25-6.21,0-9.25v-.75c-.25-2.96-.26-6.02,0-9,.28-.69.75-.81.75-.87,0-.18-.94-.26-.75-.88-.2-3.97-.2-7.97,0-12,.51.36.47.8.51,1.36.22,2.67.02,6.02,0,8.77,0,.49-.29,1.03-.22,1.44.08.47.7.84.66,1.26-.03.32-.42.69-.46,1.29-.27,4.06-.27,9.19-.25,13.24,0,2.06.41,4.08.26,6.14Z"/>
  <path class="cls-71" d="M99.25,106.5l.38-1.75c.72,0,.6.92,1.24,1.02.3.05,1.44.05,1.71-.01.35-.09.27-.94.92-.75v1.5s-4.25,0-4.25,0Z"/>
  <path class="cls-39" d="M105,85.75h-.25c-.15-3.81.2-7.7,0-11.5,0-.17.01-.33,0-.5.08.03.2-.04.25,0v12Z"/>
  <path class="cls-39" d="M105,106.5c-.56-1.59-.28-5.93-.25-7.88,0-.42-.16-1.11.25-1.37v9.25Z"/>
  <path class="cls-39" d="M105,96.5c-.41-.26-.25-.95-.25-1.37-.02-1.73-.28-6.33.25-7.63v9Z"/>
  <path class="cls-39" d="M103.75,73.75c-1.02.45-2.58.27-3.75.25,1.03-.46,2.57-.26,3.75-.25Z"/>
  <path class="cls-100" d="M112.25,91.5v.25c.37.55.89,2.05.5,2.62.47.96.39,3.23,0,4.25.22.4.04,3.32-.2,3.76-.04.07-.16.1-.3.11-.05.52-.22.77-.5.75.05-.95-.07-1.93,0-2.88.02-.32.26-.65.26-.74v-6c0-.59-.17-2.42-.25-3.12.07-.22.15-.22.25,0,.1.3.18.64.25,1Z"/>
  <path class="cls-57" d="M112.25,103.5c.28.06.28.22,0,.5,0,.08,0,.17,0,.25-.12.79-.39,1.54-.75,2.25-.19.35-.36.76-.5,1h-.25l-.25-.5c.76-1.17.76-2.57,1.25-3.75.11-.25.34-.52.5-.75.27.23.27.56,0,1Z"/>
  <path class="cls-63" d="M112,89.75c.19.19.19.56,0,.75h-.25c-.02-.15-.19-.49-.25-.75h.5Z"/>
  <path class="cls-57" d="M112.25,90.25c.12.46.12.87,0,1.25-.32-.29-.23-.63-.25-1-.01-.25,0-.5,0-.75,0-.17.01-.34,0-.5.41.18.19.71.25,1Z"/>
  <path class="cls-118" d="M95.5,88.25c.19,1.59.28,4.07,0,5.62-.08.43-.26.7-.74.63.38-1.58-.13-3,0-4.62.05-.58.13-1.89.75-1.63Z"/>
  <path class="cls-71" d="M93.5,93.75v.75c-.71-.06-2.63.49-3-.38-.49-1.16.72-.25.86-.24.39.03,1.95-.34,2.14-.14Z"/>
  <path class="cls-43" d="M177.5,91.75c.18,4.15.54,8.74.26,12.89-.15,2.26-.87,1.58-1.02-.25-.22-2.74.15-5.54.27-8.25.06-1.27-.17-2.8-.01-4.01.06-.45-.09-.41.5-.37Z"/>
  <path class="cls-109" d="M176.5,105.5h-.75v-13.12c0-.37.75-.37.75,0v13.12Z"/>
  <path class="cls-99" d="M172.25,94.25c.41.26.25.95.25,1.37.03,2.5-.02,5.01-.02,7.51,0,.41.28,1.02.23,1.23-.09.34-.85.14-.72,1.14-.45-.32-.5-.18-.75.25,0-2.83-.02-5.67,0-8.5.69.82-.24,7,.62,6.99.06,0,.3-.28.34-.4.13-3.19-.06-6.4.03-9.59Z"/>
  <path class="cls-109" d="M177.75,106.5c-.14.26-.17,1.12-.28,1.22-.12.11-.71.01-.97.03-.58.03-2.64.12-3,0,.11-.39-.35-.95.37-1,.92-.07,1.93.31,2.5.25.36-.04.71-.41,1.39-.5Z"/>
  <path class="cls-4" d="M175,106.5c-1.5.28-1.9-.64-1.27-1.89,1.65-.42,1.42.69,1.27,1.89Z"/>
  <path class="cls-56" d="M175.25,89.5c.07.81.06.82-.75.75-.12-.11-.76.27-.5-1,.43-.03.88,0,1.25.25Z"/>
  <path class="cls-30" d="M179,106.75c-.22.43-.4,1.1-1,1-.35-.84.42-1.42,1-1Z"/>
  <path class="cls-107" d="M126,103.75c.08.08.17.17.25.25.42.81,1.17.73,2.25-.25.12-.03.34,0,.5,0,1.1.03,1.87,1.94.25,1.5-.28.06-.69-.05-1,0,0,.17,0,.33,0,.5.42.32.5.57.25.75-.7-.08-.72-.18-1.25-.5-.83-.07-1.06-.5-1.25-1.25-.33-.32-.33-.25-.75-.75-.27-.47-.02-.55.75-.25Z"/>
  <path class="cls-119" d="M128.5,94.25c.32.07.4.4.25,1,.01.25-.01.5,0,.75.04,1.12.16,2.25.36,3.39l-.36.11s-.56.45-.75.25c-.4-.42-.05-3.81,0-4.64.03-.48-.26-1,.5-.86Z"/>
  <path class="cls-99" d="M128.75,100.5c.67.03.64.8.25,1.25.2.61.5.57.51.63.23,1.43-1.59.63-1.76-.25-.14-.7-.13-2.41,1-1.63Z"/>
  <path class="cls-99" d="M127.5,99.75s.36.19.25.5l-2.86-.22c-.6.16-.25,1.72-.88,2.11-.69.42-.74.15-.76-.38.67-.57.67-.99,0-1.25.09-.79.42-.44.62-.74.41-.61-.2-1.13-.37-1.76.76.21.71,1.36,1.25,1.63.68.34,1.97.01,2.75.12Z"/>
  <path class="cls-99" d="M129,103.75s.12-.32.48-.14c.42.21.94,1.07,1.39,1.4.21.16,1.8.52.46.95-.87.28-1.37-.41-2.08-.72.06-.01.27-.3.48-.27.16-.58-.23-1.01-.73-1.23Z"/>
  <path class="cls-76" d="M129.5,99.75c-.07.22-.15.22-.25,0-.15-.04-.38-.25-.5-.25.21-.99-.2-2.05-.24-2.92-.02-.37.24-.55.24-.58.26,1.24.55,2.5.75,3.75Z"/>
  <path class="cls-72" d="M129.75,100.5c.02.33-.3.85-.25,1.25-.13-.04-.34.03-.5,0-.12-.37-.25-.87-.25-1.25,0-.47.1-.51.5-.75h.25c.04.27.24.62.25.75Z"/>
  <path class="cls-109" d="M123.25,101.75c-.02-.38-.04-.88,0-1.25,1.46-.89,1.25,1.88,0,1.25Z"/>
  <path class="cls-76" d="M128.75,95.25c0-.06-.22-.53-.25-1-.03-.4-.02-.85,0-1.25.01-.21,0-.43.25-.5.06.9.57,2.03,0,2.75Z"/>
  <path class="cls-99" d="M125.25,104c-.47-.56-.97-.54-.75-1.5.74-.15.58.66.83.92.14.14.5.15.66.33l-.75.25Z"/>
  <path class="cls-99" d="M128.5,103.75c-.38.58-1.38,1.31-2.02.89-.23-.15-.18-.58-.23-.64.85.86,1.12.05,2.25-.25Z"/>
  <path class="cls-99" d="M135.5,109c-1.13.06-2.76.16-3.75-.25,1.21,0,2.42,0,3.62,0l.13.25Z"/>
  <path class="cls-99" d="M128.25,105.75l1.25.63c-.13.22-.76.15-1,.12-.13-.23-.24-.48-.25-.75Z"/>
  <path class="cls-99" d="M127.25,106c-.05-.06-.78.04-1,0-.06-.28-.33-.62-.25-1v-.25c.52.51.33.7,1.25,1.25Z"/>
  <path class="cls-118" d="M169.75,86.25c.44-.05,1.91-.13,1.75.62-.66,1.09-1.53.41-1.75-.62Z"/>
  <path class="cls-108" d="M159.25,92.25c-.61.13-1.2.78-1-.5.03-.2.42-.6.25-1,.85-.07.8.81.75,1.5Z"/>
  <path class="cls-43" d="M162.75,93.5c-.21.19-.43.19-.5.25-1.37-.9.55-2.1.5-.25Z"/>
  <path class="cls-3" d="M161.5,101.25c.13,1.9.21,2.54-1.5,3.5-.08-.04-.45,0-.73-.13-.31-.13-.48-.7-.89-.62-.5.1-.28,1.74-.75,1.74-.31,0-.41-.69-.37-.99-.25-2.2.5-2.95,2.25-2.25.21-.08.8.13.97-.03.27-.24-.12-1.59,1.03-1.22Z"/>
  <path class="cls-15" d="M163.75,97.25c.33.16.62.44.75.75-.25.27-.75.3-.89.48-.08.09.17.82.05,1.28-.15.6-.95.53-.91,1.23-.57-.07-.56,2.07,0,1.75.14.64-.24,2.5-.88,1.5-.27-.42-.12-2.33-.12-3,0-.33,0-.67,0-1,.2-.61,0-.79-.61-.55l-.39-.45c0-.08,0-.17,0-.25.21-.11.13-.28-.25-.5.82-.54,1.4-.16,2.25,0-.15-.96.07-1.16,1-1.25Z"/>
  <path class="cls-96" d="M164.25,108.75c-1.33,0-2.97.13-4.25,0l-.25-.75c.66.27,1.64-.23,2-.25.81-.04,3.16-.01,2.5,1Z"/>
  <path class="cls-30" d="M162.75,102.75c-.03.19-.26,1.26-.75,1v-3.12c.23-.46.71.17.75.37.07.36.05,1.37,0,1.75Z"/>
  <path class="cls-115" d="M163.75,97.25c.77-.07,1.49-.04.75.75h-1s.25-.75.25-.75Z"/>
  <path class="cls-115" d="M19.75,77.5c.22.96-.38.85-1.25.75-1.71.11-3.44.15-5.2.1-.21.47-.65.44-1.3-.1-.56-.18-1.27.32-.5-1,2,.35,4.1.32,6.13.26.75-.02,1.44-.5,2.12-.01Z"/>
  <path class="cls-76" d="M22.75,86.5c-.23-.24-.22-.82-.37-.75-.34.74-.64.99-1.13,1.5-1.05.63-1.04-.46-.5-1.25.24-.29.46-1.22,1-1.5.88-.12,1.42,1.33,1,2Z"/>
  <path class="cls-79" d="M21.5,81c-.15.26-.21.63-.16,1.12l-.34.13h-.25c0-.17,0-.33,0-.5-.12-.46-.37-.8-.75-1-.23-.31-.35-.54-.5-.75-.12-.56.08-1.51.87-1.25.53.17.29,1.17.43,1.58.11.33.58.45.7.67Z"/>
  <path class="cls-13" d="M18.5,78.25c-.33-.07-1.11.25-1.61.26-.53,0-3.51-.14-3.64-.01-.11.11.18,1.26-.13,1.25-.89-.09-.33-1.24-1.12-1.5,1.44-.07,2.9,0,4.33-.02.97-.02,1.06-.11,2.17.02Z"/>
  <path class="cls-72" d="M23.5,85.5c-.55.9-.13.14-.12.19.08.34.03.79-.38.81-.05-.04-.21.04-.25,0,.34-1.2-.93-1.11-1-2,0-.08,0-.17,0-.25,0-.1.25-1.17.62-1,.65.3.04,1.92,1.13,2.25Z"/>
  <path class="cls-4" d="M15.25,84.5c-1.44-.22-.95-.66-1-2,1.69-.29,1.01,1.05,1,2Z"/>
  <path class="cls-112" d="M14.25,80.25c.06.06.03,1.63-.62,1.5-.87-.52.04-2.04.62-1.5Z"/>
  <path class="cls-76" d="M20.75,86c.06.66-.31,1.43.5,1.25-.15.15-.21.44-.5.5-.07.22-.15.22-.25,0-.05-.17-.55-.62-.75-.75.38-.28.7-.64,1-1Z"/>
  <path class="cls-76" d="M20.75,81.75c-.34-.26-.5-.67-.75-1,.74,0,.74.39.75,1Z"/>
  <path class="cls-45" d="M21.5,81c.35.63.44,1.86-.5,1.75v-.5c.06-.66-.31-1.43.5-1.25Z"/>
  <path class="cls-72" d="M23.5,85.5c.09,0,.2-.02.25,0,.05.49-.03,1.01,0,1.5-.53.15-.52-.3-.75-.5v-1c.17,0,.33,0,.5,0Z"/>
  <path class="cls-107" d="M115.25,91.75l-.25,3.5c.71.63.78,2.51.25,3.25.05.31.06,1.33.27,1.48.14.1,2.39-.38,2.96.03-.01.91.2,1.9-.24,2.74.45.51.08.8-.5.5-.04.07-.18.14-.25.25-.49.63-.71.45-1.13-.15-2.03,1.81-2.2-.4-1.9-2.12l-.22-.98c-.71-.57-.78-2.22,0-2.75,0-.04.25-.28.26-.61.07-1.79-.07-3.6,0-5.39.44-.15.54.13.75.25Z"/>
  <path class="cls-4" d="M115,95.25c.03-.32.51-1.13.25-1.75,1.61.45.82,2.89.75,4.13-.04.65.51,1.21-.13,1.62l-.62-.75c-.18-1.05-.34-2.18-.25-3.25Z"/>
  <path class="cls-97" d="M118.25,102.75c.84-.21.54.89.25,1.5h-.5c0-.16-.36-.68-.25-1,.16-.27.48-.45.5-.5Z"/>
  <path class="cls-112" d="M119.75,92.25c0,.33-.02.67,0,1l-.75.62c.13-.64-.48-2.52.75-1.62Z"/>
  <path class="cls-96" d="M118.5,90.25c.3.42.28.49.25,1-.29.13-.67-.24-.75-.25-.45-1.11-.28-1.36.5-.75Z"/>
  <rect class="cls-109" x="119" y="95.25" width=".5" height=".75"/>
  <path class="cls-60" d="M64.5,89c.24.35.41.77.5,1.25.03.23-.05.54,0,.75.28-.05.43.26.25.5.83,3.2.85,6.61.6,9.88-.03.46-.33,1-.6,1.37,0,.25,0,.5,0,.75.22.05.21.13,0,.25h-.25c-.2-.28-.16-.68,0-1-.15.01-.23-.15-.25-.5.27-3.12-.22-6.6,0-9.75.02-.29-.06-.54-.25-.75-.13-1.12-.36-2.18-.75-3.25l.5-.5c.04.46.15.63.25,1Z"/>
  <path class="cls-91" d="M57.25,91.25c-.21,1.1-.38,2.18-.5,3.25-.23,3.06-.07,6.14.5,9.25.33,1.39,1.07,2.84,1.25,4-.86-.01-1.42-1.43-1.5-2.25-.26-.19-.41-.9-.25-1.25-.71-3.61-.98-13.49,1-16.5-.43,1.16-.4,2.32-.5,3.5Z"/>
  <path class="cls-51" d="M56.75,95.5c0,2.83.29,5.44.5,8.25-.65-2.76-.79-5.02-.75-7.88,0-.42-.16-1.11.25-1.37.1.3.1.64,0,1Z"/>
  <path class="cls-37" d="M56.75,95.5c0-.33-.01-.67,0-1,.03-1.07-.16-2.31.5-3.25-.12,1.36-.08,2.95-.5,4.25Z"/>
  <path class="cls-1" d="M65,102.75l-.25.5h-.25c.06-.31.24-.84.25-1,.24.07.24.29.25.5Z"/>
  <path class="cls-1" d="M64.5,91.75c1.02-.13.26.54.25.75-.14-.23-.22-.48-.25-.75Z"/>
  <path class="cls-66" d="M65,103.75c0,.16.02.34,0,.5h-.25c.05-.28-.02-.68,0-1,.01-.21,0-.43.25-.5.02.33.01.67,0,1Z"/>
  <path class="cls-13" d="M20.75,87.75l.13,1.25c2.92-1.02,1.77.39,1.87.5.06.06.56-.05.75,0,.16.04.33.18.5.25.13.61.21,1.27.25,2,.31.16,1.12.1,1.25.5-.28.29-.53.63-.75,1-.31.22-.16.26-.75.5-.15.36-.32.69-.5,1,.56.61-1.11,2.25-1.75,1.75-.31.02-.52-.44-.5-.75-.45.01-.57-.38-.36-1.19l-.39-.81c-.1-.05-.17-.22-.25-.25-.4-.42-.61-1.7,0-2,0-.08.01-.17,0-.25.26-.5.31-.92.04-1.44-.59-.28-.52-.72.21-1.31-.03-.23.05-.57,0-.75h.25Z"/>
  <path class="cls-13" d="M23.75,95c1.53,2.53,1.2-.16,1.99-.63.6-.36.91-.15.77.51-.17.8-2.34,1.9-2.64,2.86-.36,1.14.48,2.11-.12,3.26-2.11-.02-.83-.94-1.03-1.82-.13-.6-1.14-.84-1.33-1.18-.25-.43-.06-.86-.13-1.24-.07-.5.14-.6.5-.25.31-.2,1.69-1.63,1.75-1.75.17-.19.26-.11.25.25Z"/>
  <path class="cls-70" d="M28.75,98.75c-1.44.82-.93-1.49-1-2.25,1.07-.33.96,1.12,1,2,0,.08,0,.17,0,.25Z"/>
  <path class="cls-13" d="M20.25,91.5c.07.68.43,1.23,0,2-.16-.07-.56.16-.77-.15-.29-.43-.22-1.33-.23-1.85h1Z"/>
  <path class="cls-76" d="M20.25,91.25c-.13-.73.24-1.96-1-1.25-.65.04-.73-.33-.25-.75.5-.25,1.07-.36,1.5-.75.02.13-.14.46-.12.78.04.61.92,1.54-.13,1.97Z"/>
  <path class="cls-97" d="M23.75,88c.29-.45.38-.58,1-.5.05.31-.07.73,0,1-.1,1.76-1.29.96-1-.5Z"/>
  <path class="cls-70" d="M22.25,102.25l1-1c-.06.48.14,2.1-.75,2-.14-.36-.17-.82-.25-1Z"/>
  <path class="cls-13" d="M19,89.25c.12.21.27.51.25.75-.05.66-.24,1.56-1,1.25.02-1.28-.38-1.45.75-2Z"/>
  <path class="cls-45" d="M27.75,101.25c-.07.16-.89.36-1,.25-.09-.09-.08-1.66.38-1.75.64-.12.77,1.13.62,1.5Z"/>
  <path class="cls-13" d="M21.25,95.75c.33.35.19.48-.25.25-.03-.04-.44.13-.51-.16-.13-.55.11-1.47.01-2.09,1.39.72.46.94.75,2Z"/>
  <path class="cls-86" d="M27.75,94.5c.11,2.58-1.64,1.45-.75-.5.07-.05.58.38.75.5Z"/>
  <path class="cls-14" d="M17.25,90l.75-1c-.2.48.51,2.37-.5,2.25-.12-.27-.06-.92-.25-1.25Z"/>
  <path class="cls-13" d="M24,89.75c.13.06.44-.16.51.15.12.49,0,1.38-.26,1.85-.79-.42-.59-1.31-.25-2Z"/>
  <path class="cls-14" d="M19.25,94.75c.75-1.59,1.7,1.22.25,1.25-.13-.37-.14-.99-.25-1.25Z"/>
  <path class="cls-40" d="M20.25,97l.75-.25c-.11.73.39,1.96-.5,1.75-.16-.35-.16-.33-.25-.75-.15-.24-.22-.57,0-.75Z"/>
  <path class="cls-86" d="M18.25,92.25c.64-1.46,1.32,1.5.25,1.25-.19-.52-.15-.93-.25-1.25Z"/>
  <path class="cls-45" d="M15.5,86.5c-.24-3.23,1.19-.43.75,0-.05.05-.55-.03-.75,0Z"/>
  <path class="cls-13" d="M25.5,92.25c.29.91-.5.82-.75,1-.51-.47.08-1.27.75-1Z"/>
  <path class="cls-76" d="M21.75,96.5c-.15.1-.34.16-.5.25-.04-.25-.08-.56-.25-.75l.25-.25s.63.33.5.75Z"/>
  <path class="cls-76" d="M24,93.75l-.25,1.25c-.05-.08-.19-.16-.25-.25.09-.17-.11-.85,0-1,.06-.07.38.04.49,0Z"/>
  <path class="cls-13" d="M20.25,97c.04.23-.05.53,0,.75-.41-.21-.24-.85-.25-1.25.31.21.19.2.25.5Z"/>
  <path class="cls-54" d="M137.25,93c.02-1.58-.01-3.17,0-4.75,1.75-.13.83,4.32,1,4.5,1.36-.33,2.62.1,4,0,.33.03,1.34-.4,1.5,0,.06.15-.19.96-.42,1.01-.64.16-4.63.09-5.48,0-.24-.02-.51.01-.6-.26.59-.57.59-.74,0-.5Z"/>
  <path class="cls-14" d="M142.75,90c-.01.5.02,1,0,1.5-1.22.75-1.03-.88-1-1.62l1,.12Z"/>
  <path class="cls-14" d="M141.75,88.75c.26.62-.64,1.36-1,1-.25-.25.23-1.24.25-1.5l.75.5Z"/>
  <path class="cls-83" d="M137.25,93l.37-.5.63.87-1,.13c-.49-.11,0-.45,0-.5Z"/>
  <path class="cls-71" d="M141.5,90.5c.09.09.16.94-.37.75-.77-.28.13-1.01.37-.75Z"/>
  <path class="cls-76" d="M128.75,92.25s-.24-.19-.24-.58c0-.26.24-2.63.28-2.76.13-.39.63-.51.96-.66-.38,1.32-.87,2.62-1,4Z"/>
  <path class="cls-76" d="M130.75,86.75c-.16.21-.25.47-.5.75-.15.18-.33.33-.5.5.18-.62,0-1.18,1-1.25Z"/>
  <path class="cls-13" d="M159.5,102.5s-.18.52-.62.51c-.41-.01-.82-.69-1.38-.51.23.81-.19,1.67-.25,2.25.08-.63-.15-1.52.04-2.09.12-.34.69-.48.93-.82.39-.55.44-1.24,1.03-1.59.08-.22.17-.22.25,0,.34.06.87.16.75.62-.14.54-1.92.14-.75,1.63Z"/>
  <path class="cls-86" d="M159.5,100.25c-.08-.02-.17.02-.25,0-.25-.05-.97.19-.75-.37.43-1.08,2.72-.67,1,.37Z"/>
  <path class="cls-96" d="M158.25,100.5c.06.46.02.73-.38,1h-.37s0-1,0-1h.75Z"/>
  <path class="cls-56" d="M54.5,97.5c0,.08-.39.47-.42.9,0,.13.47,2.35-.32,1.6-.34-.32-.43-1.84-.57-2.31-.12-.4-.6-.74-.64-1.1-.04-.39.37-.69.37-.96,0-.38-.57-.72-.62-1.04-.06-.38.44-.63.29-1.27-.26-1.17-1.29-.97-1.35-1.18-.31-1.13.67-.95.93-1.2.12-.12,1.73-2.7,1.83-1.54s-2.37,1.97-1.75,2.62c.98.11,1.22-1.04,2.25-.75-.16,2,.15,4.29,0,6.25Z"/>
  <path class="cls-97" d="M54.5,97.5s.25-.28.26-.61c.04-2.13-.21-4.3.24-6.39l.75.75c.17.97.2,2.2,0,3.25-.03,2.07-.14,4.47,0,6.5l-.25.5c-.34-1.44-.41.21,0,.5,0,.03.25.29.27.61.08,1.56-.86,2.03-1.02.39-.17-1.73-.26-3.76-.25-5.5Z"/>
  <path class="cls-97" d="M56.75,88.75c-.07.27-.19.51-.25.75-.24.03-.61-.25-.75-.25-.29-1.46.9-2.26,1-.5Z"/>
  <path class="cls-56" d="M56.5,90.5c-.06.3-.42.66-.48,1.14-.12.92.27,2.06-.27,2.86.02-1-.13-2.33,0-3.25.07-.52.14-.75.75-.75Z"/>
  <path class="cls-71" d="M54.75,88.25c.2.01.72-.04.75,0,.16.19.09,1.35-.5,1-.5-.33-.65-.42-.25-1Z"/>
  <path class="cls-76" d="M127.5,91.5c-.02-.94-.07-1.37.25-2.25-.1.71.27,1.74-.25,2.25Z"/>
  <rect class="cls-43" x="128" y="89.5" width=".5" height="1.5"/>
  <path class="cls-4" d="M71.75,91.5c-.31,1.81.86,1.8,1.01,3.62.16,2.01.1,3.81-.51,5.63-.41.09-.56-.19-.75-.5-.56-.63-.55-2.45,0-3-.48-.14-.48-.36,0-.5-.56-.41-.48-1.82.25-2-.16-.29-.24-.54-.25-.75-1.14.41-1.51-.72-1-1.75.37-.72.22-.89,1.25-.75Z"/>
  <path class="cls-43" d="M55.5,101.5c0,.17,0,.33,0,.5-.76.14-.48-.38-.5-.86-.1-2.5-.14-5.53-.01-8.02.02-.43-.04-1.49.51-1.61.09,3.32-.11,6.68,0,10Z"/>
  <path class="cls-2" d="M57,105.5c-.07.22-.15.22-.25,0-.07-.21-.16-.67-.25-1-.02-.08.02-.17,0-.25h.25c.06.3.2,1.1.25,1.25Z"/>
  <path class="cls-54" d="M57.5,107.5c.32-.21.7.16.75.5,0,.31.79,1.32-.75.62-.4-.18-.99-1.26,0-1.12Z"/>
  <path class="cls-17" d="M58.5,107.75c.05.29-.25.23-.25.25-.27-.06-.6-.27-.75-.5-.3-.47-.56-1.43-.75-2h.25c.22.72.95,1.75,1.5,2.25Z"/>
  <path class="cls-56" d="M113.25,98.75l.51.28c-.13,1.25.04,1.66.49,1.22,1.09.62-.33,2.85.9,3.23,1.02.32,1.16-1.83,1.61-2.36.98-1.15,2.06,1.53,0,1.12.02.46.01,1.39.75,1.25-.33.49-.23.45-.76,1.11-.23.29-.25.87-.48,1.03-.63.44-1.9-.25-2.01-.13-.09.09.39.78,0,1.25-.42-.01-.84.01-1.25,0,.22-.35.19-.64.25-1,0-.05.23-.18.24-.39.02-.58-.37-1.22-.24-1.86-.44-.1-.63.3-1,.5.01-.16-.01-.34,0-.5.37-1.54.61-3.1.72-4.69l.28-.06Z"/>
  <path class="cls-96" d="M113.25,105.75c-.01.06-.55.74-.75.75v-2.25c.65-.29.79,1.28.75,1.5Z"/>
  <path class="cls-40" d="M114.25,106.75c2.1.05-.45,1.88-.88.5.26-.22.66-.23.88-.5Z"/>
  <path class="cls-90" d="M111.5,106.5l.75-2.25c-.13,1.47-.14,1.14-.75,2.25Z"/>
  <path class="cls-40" d="M63.75,87c-.16-.95,1.31-.34,1.75-.5l-.5,1.75c-.7.16-.41-.37-.75-.75-.15-.16-.31-.24-.5-.5Z"/>
  <path class="cls-56" d="M67.5,95.5c.21-2.21,1.98-1.65,2.19.33l.27-.11c-.02-.83.25-1.23.79-1.21l.51.29c-.08.75-.13,1.3.24,1.96,0,.17,0,.33,0,.5-.51.79-.59,2.45,0,3.25-.44.5-1.09.11-1,1.25-.46.48-.82.37-1-.25.76-.73.77-2.52-.36-1.49-.6.54-.42,1.27-1.64.24-.78-.19-.83-4.2-.59-4.58l.59-.17Z"/>
  <path class="cls-3" d="M70.5,101.75c.02.26.48.86.22,1.22-.05.06-1.32.69-1.41.72-.55.15-1.6-.24-2.2.3-.44,1.03.46.99.96,1.27.91.5-.57.47-.82.62-.26.16-.4.82-.63.87-1.09.27-.16-1.71-.13-2.16.04-.77-.51-1.26.01-1.84l2-.75c.28-.11.94-.49,1-.5.32-.06.72.08,1,.25Z"/>
  <path class="cls-89" d="M66.25,93.75c-1.63-3.69,2.85-.77,1.25,1.75-.61,1.48.13,3.28,0,4.75-.08.85-.59,2.61-1.25,1.25-.18-.05-.35-.15-.37-.32-.07-.8-.25-7.05.04-7.27.09-.07.21-.12.33-.16Z"/>
  <path class="cls-56" d="M65.5,91.75l.55.21c-.42.55-.15,1.14.2,1.79.06,1.9.3,6.1,0,7.75-.08.44-.56,1.05-1,1.25.02-.77.25-1.43.26-2.12.05-3.06,0-6.1-.26-9.13.32-.19.45-.08.25.25Z"/>
  <path class="cls-109" d="M71.5,97.25c-.02.78.27,2.22,0,3-.03.08.04.21,0,.25-.26-.12-1.06.33-.95-.32.16-.91.14-1.45.2-2.32.05-.77-.11-.64.75-.61Z"/>
  <path class="cls-40" d="M65.25,103.5c1.09-.7,1,2.13.25,2.25-.26-.69-.22-1.3-.25-2,0-.08,0-.17,0-.25Z"/>
  <path class="cls-56" d="M68.5,102c-.63.25-1.17.95-2,.75.38-.42,1.42-.83,2-.75Z"/>
  <path class="cls-115" d="M57.75,87c-1.92.18-1.92-.93,0-.75v.75Z"/>
  <path class="cls-70" d="M113.25,94.5c.28-1.26-.8-4.4,1-4.25v7.25c-.04.91.05,1.84,0,2.75-.05.97.13,1.96-.22,2.9-.09.24-.19.8-.53.35-.16-.21-.22-4.11-.25-4.75-.43-1.16-.36-3.06,0-4.25Z"/>
  <path class="cls-21" d="M113.25,94.5c.1,1.37-.06,2.86,0,4.25-.63,1.55.24,3.35-1,4.75.03-.33-.03-.67,0-1,.1-1.13.5-2.91.5-3.88v-4.25c0-.53-.43-1.89-.5-2.62,0-.28.09-.45.25-.5.21.92.67,2.12.75,3.25Z"/>
  <path class="cls-72" d="M117.75,89.25c-.02.57.54.7.75,1-.67-.12-.51.16-.5.75-.08,0-.17,0-.25,0-.22-.07-.22-.15,0-.25-.11-.53-.24-.62-.75-.75-.72.14-.91-.16-.5-.75-.72-.73-1-.96-2-1.38.56-1.69,2.38,1.01,3.25,1.38Z"/>
  <path class="cls-109" d="M116.5,89.25c.19.2.31.53.5.75.47.07.72.25.75.75v.25c-.06,0-.29.25-.57.19-.77-.16-2.52-2.03-.68-1.94Z"/>
  <path class="cls-119" d="M113,86.25c.17,0,.33,0,.5,0,1.59,1.01-1.14,1.09-2,1v-1c.59.33,1.27,0,1.5,0Z"/>
  <path class="cls-107" d="M114.25,87.5l-.62,2c-.67-.9-.77-2.43.62-2Z"/>
  <path class="cls-45" d="M113,89.5c-.83.22-.88-1.74-.37-1.74.44,0,.42,1.41.37,1.74Z"/>
  <path class="cls-61" d="M112.5,91.25l-.25.5c0-.08,0-.17,0-.25-.03-.41.02-.84,0-1.25.06.29.17.64.25,1Z"/>
  <path class="cls-43" d="M65.25,90.75c.2-.69.27-1.53.25-2.25.76-.12.4.19.5.61s.19.94.24,1.39c-.01,1.12-.95,1.45-1,.25Z"/>
  <path class="cls-89" d="M66.25,91c0,.17,0,.33,0,.5.3.52-.48.69-.75.25-.06-.19-.25-.23-.25-.25-.03-.1-.2-.26-.25-.5.1-.05.22-.14.25-.25.54.96.64.57,1-.25.02.16,0,.34,0,.5Z"/>
  <path class="cls-62" d="M65,90.25c-.38-.32-.38-.81-.5-1.25.66.2.43.78.5,1.25Z"/>
  <path class="cls-112" d="M159.25,93.75c-1.04.22-1.87-.62-.63-1l.63,1Z"/>
  <path class="cls-99" d="M66.25,91.5c.15.03,1.04.99,1.12.99.25,0,.77-1.32,1.47-.76.28.22.13.7.27,1.01.71,1.64.97.31,1.38-.5-.28,1.1.58,1.19,1,1.75-.02.15-.19.23-.5.25.29.37.15.51-.25.25-.35.64-.11,1.52-.66,1.72-1.33.48-.74-1.06-1.47-1.72-.23-.05-1.09.93-1.12,1-.38-1.12.03-3.3-1.5-3.25.11.53.23.94.25,1.5-.82-.35-.58-1.41-.75-2,.21.03.67-.26.75-.25Z"/>
  <path class="cls-13" d="M160.75,99.25l1.75-.25c.12.5-.26,1.15-.75,1.25-.32.07-.92.03-1.14-.24-.33-.41.14-.71.14-.76Z"/>
  <path class="cls-14" d="M160.5,98.5h1.5c-.14.55-.78.53-1.25.5,0-.03-.35-.22-.25-.5Z"/>
  <path class="cls-56" d="M174,89h-1.25s0-.75,0-.75c.62-.07,1.32-.02,1.25.75Z"/>
  <path class="cls-86" d="M51,103.25h-.5s0-1,0-1c.5.13.56.55.5,1Z"/>
  <path class="cls-3" d="M40.25,78.5c1.19.07,2.45-.1,3.64,0,.46.04.63-.22.62.38-.02,1.48-1.85.68-2.87.88-.5.1-.65.58-1.13.49.16-.42-.21-.77-.25-1s.03-.51,0-.75Z"/>
  <path class="cls-56" d="M40.5,107.75v-7.25c.34-.06.6.09.71.42.15.47.16,5.58.04,6.21-.08.43-.27.7-.75.63Z"/>
  <path class="cls-89" d="M44.75,107.5c-.5-2.24-.48-3.45-.25-5.75.03-.35.18-1.02.25-1.5.62.71.03,1.78-.01,2.61-.07,1.54.07,3.1.01,4.64Z"/>
  <path class="cls-56" d="M44.5,101.75c-1.05.04-1.05-1.54,0-1.5v1.5Z"/>
  <path class="cls-119" d="M40,79.25c-.06,2.2.09,4.43,0,6.64-.02.48.26,1-.5.86.01-2.58,0-5.17,0-7.75.47-.15.42.18.5.25Z"/>
  <path class="cls-40" d="M75.5,102l.12-1c.55.39.49.77-.12,1Z"/>
  <rect class="cls-74" x="98.5" y="107" width=".75" height=".5"/>
  <path class="cls-109" d="M71,94.25c.46-.29.64.03.75.5.07.82-.24,1.4-.25,2-1.16-.02-.67-1.44-.75-2.25.05-.08.17-.19.25-.25Z"/>
  <path class="cls-56" d="M71.5,94c.27.36.21.32.25.75-.19-.31-.34-.59-.75-.5.16-.12.25-.27.5-.25Z"/>
  <rect class="cls-72" x="66.5" y="95.25" width=".5" height="5.25"/>
  <path class="cls-30" d="M114,101.5h-.5v-10c.19-.14.5.51.5.62v9.38Z"/>
  <path class="cls-13" d="M117,90c.81-.07.82-.06.75.75-.17-.32-.54-.51-.75-.75Z"/>
</svg>
